<svg version="1.1" xmlns="http://www.w3.org/2000/svg" xmlns:xlink="http://www.w3.org/1999/xlink" width="100.15053" height="44.94835" viewBox="0,0,100.15053,44.94835"><g transform="translate(-206.71707,-155.26414)"><g data-paper-data="{&quot;isPaintingLayer&quot;:true}" fill-rule="nonzero" stroke="#000000" stroke-linejoin="miter" stroke-miterlimit="10" stroke-dasharray="" stroke-dashoffset="0" style="mix-blend-mode: normal"><path d="M207.47258,164.64253l63.43775,-0.46781l0.20049,27.1876l-63.43775,0.46781z" fill="#926548" stroke-width="1.5" stroke-linecap="butt"/><path d="M264.15814,177.875l-11.97384,-4.02364l7.95975,-9.26159l10.81784,6.57764z" fill="#c38200" stroke-width="0" stroke-linecap="round"/><path d="M236.3557,168.28971l17.84607,16.14828l-19.95951,-8.38982z" fill="#009c0d" stroke-width="0" stroke-linecap="round"/><path d="M230.95698,185.72927l13.52985,-8.77215l-5.75915,13.63701z" fill="#00ff83" stroke-width="0" stroke-linecap="round"/><path d="M257.82787,177.02657l10.66582,0.82856l-4.02703,7.51417z" fill="#ffb959" stroke-width="0" stroke-linecap="round"/><path d="M220.5385,171.46142l7.75407,17.10565l-15.29018,-4.6547l-1.30078,-14.76951z" fill="#ffaf00" stroke-width="0" stroke-linecap="round"/><path d="M216.371,165.08041l22.83901,1.84558l-15.71859,7.83627z" fill="#e8c000" stroke-width="0" stroke-linecap="round"/><path d="M230.15416,190.65734l-12.2364,0.09024l-8.08163,-6.15025l18.08199,0.0493z" fill="#ffde00" stroke-width="0" stroke-linecap="round"/><path d="M256.04579,178.04671l1.89334,3.71787l5.88954,3.42184l6.40494,1.01901l-5.55814,5.37219l-14.43079,-4.95821z" fill="#7a4d2a" stroke-width="0" stroke-linecap="round"/><g fill="#926548"><g><path d="M208.84092,156.74425l64.10905,-0.47276l0.0594,8.05559l-64.10905,0.47276z" stroke-width="2" stroke-linecap="butt"/><g stroke-width="2" stroke-linecap="butt"><path d="M250.96616,156.60144l10.57296,-0.07797l0.05816,7.88777l-10.57295,0.07797z"/><path d="M256.37739,162.10005c-0.92687,0.00683 -1.68378,-0.739 -1.69062,-1.66587c-0.00684,-0.92687 0.73899,-1.68379 1.66586,-1.69062c0.92687,-0.00683 1.6838,0.739 1.69063,1.66587c0.00684,0.92687 -0.73901,1.68379 -1.66588,1.69062z"/></g><g stroke-width="2" stroke-linecap="butt"><path d="M213.37219,156.71083l10.57295,-0.07797l0.05817,7.88776l-10.57295,0.07797z"/><path d="M218.78342,162.20944c-0.92687,0.00683 -1.68379,-0.739 -1.69062,-1.66587c-0.00683,-0.92687 0.739,-1.68379 1.66587,-1.69063c0.92687,-0.00683 1.68379,0.739 1.69063,1.66587c0.00683,0.92687 -0.739,1.68379 -1.66587,1.69062z"/></g><path d="M229.33534,159.27846l17.62036,-0.29777" stroke-width="0.5" stroke-linecap="round"/><path d="M229.1539,157.43362l0.03094,4.19562" stroke-width="0.5" stroke-linecap="round"/><path d="M246.98045,162.33718l-17.62036,0.29777" stroke-width="0.5" stroke-linecap="round"/><path d="M229.17865,160.79012l0.03094,4.19562" stroke-width="0.5" stroke-linecap="round"/></g><path d="M272.96853,158.78886l-2.85425,-0.14679" stroke-width="1.5" stroke-linecap="round"/><path d="M272.31084,160.63988l-2.51737,0.01856" stroke-width="1.5" stroke-linecap="round"/><path d="M272.66258,162.81913l-3.02084,0.02228" stroke-width="1.5" stroke-linecap="round"/></g><g fill="#926548"><g><path d="M208.9268,191.14955l64.10904,-0.47276l0.0594,8.05559l-64.10904,0.47277z" stroke-width="2" stroke-linecap="butt"/><g stroke-width="2" stroke-linecap="butt"><path d="M251.05204,191.00674l10.57296,-0.07797l0.05817,7.88777l-10.57296,0.07797z"/><path d="M256.46328,196.50535c-0.92687,0.00683 -1.68379,-0.739 -1.69062,-1.66587c-0.00684,-0.92687 0.739,-1.68379 1.66587,-1.69062c0.92687,-0.00683 1.68379,0.739 1.69063,1.66587c0.00684,0.92687 -0.73901,1.68379 -1.66588,1.69062z"/></g><g stroke-width="2" stroke-linecap="butt"><path d="M213.45807,191.11614l10.57296,-0.07797l0.05817,7.88776l-10.57296,0.07797z"/><path d="M218.8693,196.61475c-0.92687,0.00683 -1.68379,-0.739 -1.69062,-1.66587c-0.00683,-0.92687 0.739,-1.68379 1.66587,-1.69062c0.92687,-0.00683 1.68379,0.739 1.69062,1.66587c0.00683,0.92687 -0.739,1.68379 -1.66587,1.69062z"/></g><path d="M247.04158,193.38599l-17.62036,0.29777" stroke-width="0.5" stroke-linecap="round"/><path d="M229.23978,191.83893l0.03094,4.19562" stroke-width="0.5" stroke-linecap="round"/><path d="M247.06633,196.74248l-17.62036,0.29777" stroke-width="0.5" stroke-linecap="round"/><path d="M229.26453,195.19542l0.03094,4.19562" stroke-width="0.5" stroke-linecap="round"/></g><path d="M273.05441,193.19416l-2.85425,-0.14679" stroke-width="1.5" stroke-linecap="round"/><path d="M272.39673,195.04518l-2.51737,0.01856" stroke-width="1.5" stroke-linecap="round"/><path d="M272.74846,197.22443l-3.02085,0.02228" stroke-width="1.5" stroke-linecap="round"/></g><path d="M264.73694,180.50013c0,0 -4.46258,6.45038 -8.44939,8.82114c-3.47703,2.06761 -7.29915,-0.07617 -10.62557,0.02292c-3.11389,0.09276 -5.72812,2.55529 -9.07382,0.78141c-1.72072,-0.91232 -3.19112,-3.52017 -3.19112,-3.52017l-0.29282,-16.94906c0,0 0.61353,-2.34844 3.07624,-3.94981c2.79615,-1.81819 7.17112,-0.13106 10.41258,0.11754c3.06259,0.23488 6.43464,-1.82217 9.46401,0.32653c2.41064,1.70984 8.46627,8.14123 8.46627,8.14123z" fill="#ffcbad" stroke-width="0.5" stroke-linecap="round"/><path d="M263.14083,182.54739l-5.7396,0.04233l-1.4216,-1.60072l-0.05273,-7.14934l1.20092,-1.01585l5.83659,-0.54655z" fill="#ff8b00" stroke-width="0.5" stroke-linecap="round"/><path d="M268.15181,179.28803l-3.51615,1.13363l-7.45141,0.05495l0.36045,-5.74258l6.74656,-0.04975l3.93675,1.28007z" fill="#593c00" stroke-width="0.5" stroke-linecap="round"/><path d="M268.33093,176.2657l38.26403,-0.28217l0.0208,2.81946l-38.26404,0.28217z" fill="#ffad4f" stroke-width="0.5" stroke-linecap="butt"/><path d="M236.65928,169.24884c0,0 2.63408,-2.56678 4.21389,-2.59439c0.75681,-0.01323 1.74594,-0.35543 2.85229,0.16824c1.42167,0.67292 2.90187,2.25195 2.90187,2.25195l0.31797,15.8076c0,0 -0.60654,2.03575 -2.09609,2.905c-1.29277,0.75442 -3.42662,0.35814 -4.22392,0.36401c-1.59864,0.01179 -3.64878,-3.1955 -3.64878,-3.1955z" fill="#ffb570" stroke-width="0.5" stroke-linecap="butt"/><path d="M241.89245,168.80744c1.8352,-0.01353 3.33389,1.46322 3.34743,3.29843c0.01353,1.83521 -1.46322,3.3339 -3.29842,3.34743c-1.83521,0.01353 -3.3339,-1.46322 -3.34743,-3.29843c-0.01353,-1.83521 1.46322,-3.3339 3.29842,-3.34743z" fill="#ff9800" stroke-width="0.5" stroke-linecap="butt"/><path d="M241.8764,180.2874c1.83521,-0.01353 3.3339,1.46322 3.34744,3.29843c0.01353,1.83521 -1.46322,3.3339 -3.29843,3.34743c-1.83521,0.01353 -3.3339,-1.46322 -3.34744,-3.29842c-0.01353,-1.83521 1.46322,-3.3339 3.29843,-3.34744z" fill="#ff9800" stroke-width="0.5" stroke-linecap="butt"/><path d="M246.4898,177.73587l-9.16323,0.06758" fill="none" stroke-width="0.5" stroke-linecap="round"/><path d="M226.38256,168.53109l6.20952,-0.04579l0.14851,20.13896l-6.20951,0.04579z" fill-opacity="0.64706" fill="#d6d000" stroke-width="2" stroke-linecap="butt"/><path d="M226.91079,171.88388l5.37038,-0.0396l0.01856,2.51737l-5.37038,0.0396z" fill="none" stroke-width="2" stroke-linecap="butt"/><path d="M226.47662,181.28577l5.37039,-0.0396l0.01856,2.51737l-5.37038,0.0396z" fill="none" stroke-width="2" stroke-linecap="butt"/><path d="M213.3765,166.39952l8.25698,-0.06089l0.17004,23.05911l-8.25698,0.06089z" fill-opacity="0.73333" fill="#8cb500" stroke-width="1.5" stroke-linecap="butt"/><path d="M221.45585,169.56235l-7.65206,0.15713" fill="none" stroke-width="1.5" stroke-linecap="round"/><path d="M220.87841,173.19182l-7.14934,0.05272" fill="#bdff00" stroke-width="1.5" stroke-linecap="round"/><path d="M220.90366,176.61545l-7.45141,0.05495" fill="none" stroke-width="1.5" stroke-linecap="round"/><path d="M221.12733,179.63481l-6.84651,0.15118" fill="none" stroke-width="1.5" stroke-linecap="round"/><path d="M214.30161,182.60545l7.35072,-0.05421" fill="none" stroke-width="1.5" stroke-linecap="round"/><path d="M221.27554,186.07853l-6.74655,0.04975" fill="none" stroke-width="1.5" stroke-linecap="round"/></g></g></svg>