<svg version="1.1" xmlns="http://www.w3.org/2000/svg" xmlns:xlink="http://www.w3.org/1999/xlink" width="97.12654" height="43.90783" viewBox="0,0,97.12654,43.90783"><g transform="translate(-207.93413,-154.68502)"><g data-paper-data="{&quot;isPaintingLayer&quot;:true}" fill-rule="nonzero" stroke="#000000" stroke-linejoin="miter" stroke-miterlimit="10" stroke-dasharray="" stroke-dashoffset="0" style="mix-blend-mode: normal"><path d="M208.86182,163.4132l62.13068,0.31057l-0.1331,26.62744l-62.13068,-0.31057z" fill="#000a77" stroke-width="1.5" stroke-linecap="butt"/><path d="M264.21403,177.05872l-11.67732,-4.08546l7.90727,-8.97348l10.51428,6.57261z" fill="#0046ff" stroke-width="0" stroke-linecap="round"/><path d="M237.10307,167.3349l17.2811,16.03037l-19.44482,-8.45807z" fill="#009c9c" stroke-width="0" stroke-linecap="round"/><path d="M231.60474,184.34815l13.35617,-8.42668l-5.80522,13.28503z" fill="#0084ff" stroke-width="0" stroke-linecap="round"/><path d="M258.02504,176.15114l10.43508,0.94065l-4.03475,7.30989z" fill="#58ffff" stroke-width="0" stroke-linecap="round"/><path d="M221.57474,170.24931l7.38634,16.84565l-14.91737,-4.74366l-1.09489,-14.47965z" fill="#1700ff" stroke-width="0" stroke-linecap="round"/><path d="M217.5708,163.94984l22.34404,2.08414l-15.48829,7.48365z" fill="#00e8e8" stroke-width="0" stroke-linecap="round"/><path d="M230.75881,189.16453l-11.98428,-0.05991l-7.83988,-6.12092l17.70722,0.26739z" fill="#00ffb5" stroke-width="0" stroke-linecap="round"/><path d="M256.26747,177.12858l1.8091,3.66388l5.72621,3.4224l6.26006,1.07553l-5.50822,5.19366l-14.07208,-5.03048z" fill="#6567f7" stroke-width="0" stroke-linecap="round"/><g fill="#00ceff"><g><path d="M209.31135,155.69001l62.78815,0.31386l-0.03944,7.88961l-62.78815,-0.31386z" stroke-width="2" stroke-linecap="butt"/><g stroke-width="2" stroke-linecap="butt"><path d="M250.56662,156.0606l10.35511,0.05176l-0.03862,7.72525l-10.35511,-0.05176z"/><path d="M255.79924,161.511c-0.90777,-0.00454 -1.63999,-0.74411 -1.63545,-1.65188c0.00454,-0.90777 0.74411,-1.63999 1.65188,-1.63546c0.90777,0.00454 1.63999,0.74411 1.63546,1.65189c-0.00454,0.90777 -0.74411,1.63999 -1.65189,1.63545z"/></g><g stroke-width="2" stroke-linecap="butt"><path d="M213.74926,155.71219l10.35511,0.05176l-0.03862,7.72525l-10.35511,-0.05176z"/><path d="M218.98188,161.16259c-0.90777,-0.00454 -1.63999,-0.74411 -1.63545,-1.65188c0.00454,-0.90777 0.74411,-1.63999 1.65188,-1.63546c0.90777,0.00454 1.63999,0.74411 1.63546,1.65189c-0.00454,0.90777 -0.74411,1.63999 -1.65189,1.63545z"/></g><path d="M229.35097,158.42012l17.25935,-0.07809" stroke-width="0.5" stroke-linecap="round"/><path d="M229.19563,156.61126l-0.02054,4.10918" stroke-width="0.5" stroke-linecap="round"/><path d="M246.59388,161.62936l-17.25935,0.07809" stroke-width="0.5" stroke-linecap="round"/><path d="M229.1792,159.8986l-0.02054,4.10918" stroke-width="0.5" stroke-linecap="round"/></g><path d="M272.08718,158.46937l-2.79341,-0.17834" stroke-width="1.5" stroke-linecap="round"/><path d="M271.42067,160.27412l-2.4655,-0.01232" stroke-width="1.5" stroke-linecap="round"/><path d="M268.78012,162.39775l2.9586,0.01479" stroke-width="1.5" stroke-linecap="round"/></g><g fill="#00ceff"><g><path d="M208.97855,189.3844l62.78815,0.31386l-0.03944,7.88961l-62.78815,-0.31386z" stroke-width="2" stroke-linecap="butt"/><g stroke-width="2" stroke-linecap="butt"><path d="M250.23382,189.75499l10.35511,0.05176l-0.03862,7.72525l-10.35511,-0.05176z"/><path d="M255.46644,195.20539c-0.90777,-0.00454 -1.63999,-0.74411 -1.63545,-1.65188c0.00454,-0.90777 0.74411,-1.63999 1.65188,-1.63546c0.90777,0.00454 1.63999,0.74411 1.63546,1.65189c-0.00454,0.90777 -0.74411,1.63999 -1.65189,1.63545z"/></g><g stroke-width="2" stroke-linecap="butt"><path d="M213.41646,189.40658l10.35511,0.05176l-0.03862,7.72525l-10.35511,-0.05176z"/><path d="M218.64909,194.85698c-0.90777,-0.00454 -1.63999,-0.74411 -1.63545,-1.65188c0.00454,-0.90777 0.74411,-1.63999 1.65188,-1.63545c0.90777,0.00454 1.63999,0.74411 1.63545,1.65188c-0.00454,0.90777 -0.74411,1.63999 -1.65188,1.63545z"/></g><path d="M246.27751,192.03641l-17.25935,0.07809" stroke-width="0.5" stroke-linecap="round"/><path d="M228.86284,190.30565l-0.02054,4.10918" stroke-width="0.5" stroke-linecap="round"/><path d="M246.26108,195.32375l-17.25935,0.07809" stroke-width="0.5" stroke-linecap="round"/><path d="M228.8464,193.59299l-0.02054,4.10917" stroke-width="0.5" stroke-linecap="round"/></g><path d="M271.75438,192.16376l-2.79341,-0.17834" stroke-width="1.5" stroke-linecap="round"/><path d="M268.62237,193.95619l2.4655,0.01232" stroke-width="1.5" stroke-linecap="round"/><path d="M271.40592,196.10693l-2.9586,-0.01479" stroke-width="1.5" stroke-linecap="round"/></g><path d="M226.34717,167.44551l6.08158,0.0304l-0.09859,19.72403l-6.08158,-0.0304z" fill-opacity="0.64706" fill="#00d6d6" stroke-width="2" stroke-linecap="butt"/><path d="M226.82384,170.73531l5.25974,0.02629l-0.01232,2.4655l-5.25974,-0.02629z" fill="none" stroke-width="2" stroke-linecap="butt"/><path d="M226.28473,179.93739l5.25974,0.02629l-0.01232,2.4655l-5.25974,-0.02629z" fill="none" stroke-width="2" stroke-linecap="butt"/><path d="M263.76285,179.63162c0,0 -4.69248,5.7685 -8.62552,8.04189c-3.50145,2.02392 -7.05851,1.60554 -10.40036,1.61523c-2.97875,0.00864 -5.49328,1.15599 -8.65705,-0.57193c-1.67406,-0.91429 -3.08244,-3.486 -3.08244,-3.486l-0.08138,-16.60187c0,0 0.6293,-2.29241 3.06045,-3.8308c2.76033,-1.74668 7.76766,-0.7774 10.93904,-0.49467c2.99637,0.26713 5.57775,-0.47744 8.51839,1.66351c2.34004,1.70367 8.1949,7.58225 8.1949,7.58225z" fill="#ade9ff" stroke-width="0.5" stroke-linecap="round"/><path d="M262.17496,181.61718l-5.62135,-0.0281l-1.37279,-1.58482l0.035,-7.00203l1.18837,-0.98029l5.72243,-0.46451z" fill="#4200ff" stroke-width="0.5" stroke-linecap="round"/><path d="M267.12174,178.48599l-3.45713,1.06757l-7.29789,-0.03648l0.42258,-5.61938l6.60755,0.03303l3.83978,1.30129z" fill="#010058" stroke-width="0.5" stroke-linecap="round"/><path d="M267.33377,175.52837l37.47565,0.18733l-0.0138,2.76136l-37.47565,-0.18733z" fill="#4e6eff" stroke-width="0.5" stroke-linecap="butt"/><path d="M236.40254,168.27293c0,0 2.61067,-2.48175 4.15812,-2.48964c0.74132,-0.00378 1.71412,-0.32692 2.79123,0.19932c1.3841,0.67622 2.81454,2.24051 2.81454,2.24051l0.11984,15.48435c0,0 -0.61865,1.98628 -2.08792,2.81949c-1.27517,0.72314 -3.36005,0.3092 -4.14093,0.3053c-1.5657,-0.00783 -3.53455,-3.17359 -3.53455,-3.17359z" fill="#6fffff" stroke-width="0.5" stroke-linecap="butt"/><path d="M241.53276,167.90408c1.79739,0.00898 3.24718,1.47334 3.2382,3.27073c-0.00898,1.79739 -1.47334,3.24718 -3.27073,3.2382c-1.79739,-0.00898 -3.24718,-1.47334 -3.2382,-3.27073c0.00898,-1.79739 1.47334,-3.24718 3.27073,-3.2382z" fill="#0065ff" stroke-width="0.5" stroke-linecap="butt"/><path d="M241.37794,179.14628c1.79739,0.00898 3.24718,1.47334 3.2382,3.27073c-0.00898,1.79739 -1.47334,3.24718 -3.27073,3.2382c-1.79739,-0.00898 -3.24718,-1.47334 -3.2382,-3.27073c0.00898,-1.79739 1.47334,-3.24718 3.27073,-3.2382z" fill="#0065ff" stroke-width="0.5" stroke-linecap="butt"/><path d="M245.92679,176.70346l-8.97443,-0.04486" fill="none" stroke-width="0.5" stroke-linecap="round"/><path d="M267.0596,171.1876l0.0212,-4.24067" fill="none" stroke-width="1.5" stroke-linecap="round"/><path d="M266.78496,186.66998l0.2214,-4.8314" fill="none" stroke-width="1.5" stroke-linecap="round"/><path d="M213.63608,165.20044l8.08685,0.04042l-0.11289,22.58401l-8.08685,-0.04042z" fill-opacity="0.73333" fill="#008eb5" stroke-width="1.5" stroke-linecap="butt"/><path d="M221.50992,168.39573l-7.49562,0.06115" fill="none" stroke-width="1.5" stroke-linecap="round"/><path d="M220.90045,171.94309l-7.00203,-0.035" fill="none" stroke-width="1.5" stroke-linecap="round"/><path d="M220.88369,175.29618l-7.29789,-0.03648" fill="none" stroke-width="1.5" stroke-linecap="round"/><path d="M221.06614,178.25577l-6.70666,0.0651" fill="none" stroke-width="1.5" stroke-linecap="round"/><path d="M214.34567,181.08223l7.19927,0.03599" fill="none" stroke-width="1.5" stroke-linecap="round"/><path d="M221.13321,184.56795l-6.60755,-0.03303" fill="none" stroke-width="1.5" stroke-linecap="round"/><path d="M210.28842,164.09886l-0.22137,24.55592" fill="none" stroke-width="1.5" stroke-linecap="round"/><path d="M212.16417,163.71375l-0.52068,25.24478" fill="none" stroke-width="1.5" stroke-linecap="round"/></g></g></svg>