<svg version="1.1" xmlns="http://www.w3.org/2000/svg" xmlns:xlink="http://www.w3.org/1999/xlink" width="86.75" height="197.36667" viewBox="0,0,86.75,197.36667"><g transform="translate(-196.83333,-81.55)"><g data-paper-data="{&quot;isPaintingLayer&quot;:true}" fill-rule="nonzero" stroke-linejoin="miter" stroke-miterlimit="10" stroke-dasharray="" stroke-dashoffset="0" style="mix-blend-mode: normal"><path d="M214.5,278.16667v-126h54v126z" fill="#454854" stroke="#000000" stroke-width="1.5" stroke-linecap="butt"/><path d="M241.61112,165.77778l-8.16667,23.72222l-18.27778,-15.94444l13.22222,-21.38889z" fill="#adc3ff" stroke="#000000" stroke-width="0" stroke-linecap="round"/><path d="M222.16667,220.85556l32.33333,-35.20741l-16.95528,39.51852z" fill="#009c50" stroke="#000000" stroke-width="0" stroke-linecap="round"/><path d="M256.72414,231.83334l-17.22414,-27l27,11.63793z" fill="#0084ff" stroke="#000000" stroke-width="0" stroke-linecap="round"/><path d="M239.83334,178.33784l1.8018,-21.17117l14.86486,8.10811z" fill="#256b6b" stroke="#000000" stroke-width="0" stroke-linecap="round"/><path d="M228.2343,252.31643l34.08696,-15.14976l-9.4686,30.29952l-29.35266,2.36715z" fill="#0d009a" stroke="#000000" stroke-width="0" stroke-linecap="round"/><path d="M215.5,260.5l4,-45.33333l15.33333,31.33333z" fill="#00e8e8" stroke="#000000" stroke-width="0" stroke-linecap="round"/><path d="M266.49999,233.5v24.30392l-12.33333,15.96078l0.36275,-35.91176z" fill="#00ffb5" stroke="#000000" stroke-width="0" stroke-linecap="round"/><path d="M241.83333,181.89215l7.41176,-3.70588l6.88235,-11.64706l2.11765,-12.70588l10.58824,11.11765l-10.05882,28.58824z" fill="#65f7c1" stroke="#000000" stroke-width="0" stroke-linecap="round"/><path d="M197.83334,275.66667v-127.33333h16v127.33333z" fill="#5258ff" stroke="#000000" stroke-width="2" stroke-linecap="butt"/><g fill="#ebff4c" stroke="#000000" stroke-width="2" stroke-linecap="butt"><path d="M198.16667,192v-21h15.66667v21z"/><path d="M209.16667,181.33334c0,1.84095 -1.49238,3.33333 -3.33333,3.33333c-1.84095,0 -3.33334,-1.49238 -3.33334,-3.33333c0,-1.84095 1.49239,-3.33334 3.33334,-3.33334c1.84095,0 3.33333,1.49239 3.33333,3.33334z"/></g><g fill="#ebff4c" stroke="#000000" stroke-width="2" stroke-linecap="butt"><path d="M197.83333,266.66667v-21h15.66667v21z"/><path d="M208.83333,256c0,1.84095 -1.49238,3.33333 -3.33333,3.33333c-1.84095,0 -3.33334,-1.49238 -3.33334,-3.33333c0,-1.84095 1.49239,-3.33334 3.33334,-3.33334c1.84095,0 3.33333,1.49239 3.33333,3.33334z"/></g><path d="M203.16667,235l-0.33333,-35" fill="#ff5252" stroke="#ff0000" stroke-width="1" stroke-linecap="round"/><path d="M199.5,235.33334h8.33334" fill="#5258ff" stroke="#ff0000" stroke-width="2" stroke-linecap="round"/><path d="M209.5,200l0.33333,35" fill="#ff5252" stroke="#ff0000" stroke-width="1" stroke-linecap="round"/><path d="M206.16667,235.33334h8.33334" fill="#5258ff" stroke="#ff0000" stroke-width="2" stroke-linecap="round"/><path d="M202.83334,148.33334l-0.33334,5.66666" fill="#5258ff" stroke="#000000" stroke-width="1.5" stroke-linecap="round"/><path d="M206.5,149.66667v5" fill="#5258ff" stroke="#000000" stroke-width="1.5" stroke-linecap="round"/><path d="M210.83334,149v6" fill="#5258ff" stroke="#000000" stroke-width="1.5" stroke-linecap="round"/><path d="M266.16667,276v-127.33333h16v127.33333z" fill="#5258ff" stroke="#000000" stroke-width="2" stroke-linecap="butt"/><g fill="#ebff4c" stroke="#000000" stroke-width="2" stroke-linecap="butt"><path d="M266.5,192.33334v-21h15.66667v21z"/><path d="M277.5,181.66667c0,1.84095 -1.49238,3.33333 -3.33333,3.33333c-1.84095,0 -3.33334,-1.49238 -3.33334,-3.33333c0,-1.84095 1.49239,-3.33334 3.33334,-3.33334c1.84095,0 3.33333,1.49239 3.33333,3.33334z"/></g><g stroke="#000000" stroke-width="2" stroke-linecap="butt"><path d="M266.16667,267v-21h15.66667v21z" fill="#ebff4c"/><path d="M277.16667,256.33333c0,1.84095 -1.49238,3.33333 -3.33333,3.33333c-1.84095,0 -3.33333,-1.49238 -3.33333,-3.33333c0,-1.84095 1.49238,-3.33333 3.33333,-3.33333c1.84095,0 3.33333,1.49238 3.33333,3.33333z" fill="#ebff4c"/></g><path d="M271.16667,200.33334l0.33333,35" fill="#5258ff" stroke="#ff0000" stroke-width="1" stroke-linecap="round"/><path d="M267.83333,235.66667h8.33334" fill="#5258ff" stroke="#ff0000" stroke-width="1.5" stroke-linecap="round"/><path d="M277.83333,200.33334l0.33333,35" fill="#5258ff" stroke="#ff0000" stroke-width="1" stroke-linecap="round"/><path d="M274.5,235.66667h8.33333" fill="#5258ff" stroke="#ff0000" stroke-width="1.5" stroke-linecap="round"/><path d="M271.16667,148.66667l-0.33334,5.66666" fill="#5258ff" stroke="#000000" stroke-width="1.5" stroke-linecap="round"/><path d="M274.83333,150v5" fill="#5258ff" stroke="#000000" stroke-width="1.5" stroke-linecap="round"/><path d="M279.16667,149.33334v6" fill="#5258ff" stroke="#000000" stroke-width="1.5" stroke-linecap="round"/><path d="M221.5,241v-12.33334h40v12.33334z" fill-opacity="0.6549" fill="#8dffff" stroke="#000000" stroke-width="2" stroke-linecap="butt"/><path d="M228.16667,240v-10.66666h5v10.66666z" fill="none" stroke="#000000" stroke-width="2" stroke-linecap="butt"/><path d="M246.83333,241v-10.66666h5v10.66666z" fill="none" stroke="#000000" stroke-width="2" stroke-linecap="butt"/><path d="M245.83334,165c0,0 12.74569,8.95755 17.39584,16.91045c7.82992,13.39108 8.6762,25.48549 1.30894,39.13657c-1.83715,3.40414 -7.03812,6.28631 -7.03812,6.28631l-33.66666,0.33333c0,0 -4.65523,-1.25293 -7.79963,-6.16755c-3.57014,-5.58005 -5.65526,-15.24442 -5.11405,-21.67862c0.51135,-6.07915 1.97525,-11.80646 6.28713,-17.79159c3.4312,-4.76271 16.29322,-16.69556 16.29322,-16.69556z" fill-opacity="0.78039" fill="#56ffff" stroke="#000000" stroke-width="0.5" stroke-linecap="round"/><path d="M249.87602,168.2v11.4l-3.2,2.8h-14.2l-2,-2.4l-1,-11.6z" fill="#001b4a" stroke="#000000" stroke-width="0.5" stroke-linecap="round"/><path d="M243.47602,158.2l2.2,7v14.8l-11.4,-0.8v-13.4l2.6,-7.8z" fill="#0021ff" stroke="#000000" stroke-width="0.5" stroke-linecap="round"/><path d="M237.47602,157.8v-76h5.6v76z" fill="#ddff29" stroke="#000000" stroke-width="0.5" stroke-linecap="butt"/><path d="M240.07602,201.2v18.2" fill="none" stroke="#000000" stroke-width="0.5" stroke-linecap="round"/><path d="M220.07602,158.4h8.6" fill="none" stroke="#000000" stroke-width="1.5" stroke-linecap="round"/><path d="M250.27602,158.4l9.8,0.4" fill="none" stroke="#000000" stroke-width="1.5" stroke-linecap="round"/><path d="M217.07602,266.8v-16.4h45.8v16.4z" fill-opacity="0.87843" fill="#74c0c4" stroke="#000000" stroke-width="1.5" stroke-linecap="butt"/><path d="M223.47602,250.8l0.2,15.2" fill="none" stroke="#000000" stroke-width="1.5" stroke-linecap="round"/><path d="M230.67602,252v14.2" fill="none" stroke="#000000" stroke-width="1.5" stroke-linecap="round"/><path d="M237.47602,252v14.8" fill="none" stroke="#000000" stroke-width="1.5" stroke-linecap="round"/><path d="M224.40936,220.6c0,0 -5.05928,-5.26911 -5.09098,-8.40716c-0.01519,-1.5033 -0.68034,-3.4728 0.37591,-5.66244c1.3573,-2.81371 4.51507,-5.7304 4.51507,-5.7304l31.4,-0.4c0,0 4.03432,1.23445 5.7389,4.20557c1.47941,2.57862 0.6611,6.81082 0.6611,8.39443c0,3.17522 -6.4,7.2 -6.4,7.2z" fill-opacity="0.72549" fill="#4c00ff" stroke="#000000" stroke-width="0.5" stroke-linecap="butt"/><path d="M243.47602,251.6l0.2,13.6" fill="none" stroke="#000000" stroke-width="1.5" stroke-linecap="round"/><path d="M249.27602,250.6v14.6" fill="none" stroke="#000000" stroke-width="1.5" stroke-linecap="round"/><path d="M256.27602,251.4v13.4" fill="none" stroke="#000000" stroke-width="1.5" stroke-linecap="round"/><path d="M214.87602,273.6l49.8,0.2" fill="none" stroke="#000000" stroke-width="1.5" stroke-linecap="round"/><path d="M214.07602,269.8l51.2,0.8" fill="none" stroke="#000000" stroke-width="1.5" stroke-linecap="round"/><path d="M222.27602,210.2c0,-3.64508 2.95492,-6.6 6.6,-6.6c3.64508,0 6.6,2.95492 6.6,6.6c0,3.64508 -2.95492,6.6 -6.6,6.6c-3.64508,0 -6.6,-2.95492 -6.6,-6.6z" fill="#0015ff" stroke="#000000" stroke-width="0.5" stroke-linecap="butt"/><path d="M245.07602,210.73334c0,-3.64508 2.95492,-6.6 6.6,-6.6c3.64508,0 6.6,2.95492 6.6,6.6c0,3.64508 -2.95492,6.6 -6.6,6.6c-3.64508,0 -6.6,-2.95492 -6.6,-6.6z" fill="#0015ff" stroke="#000000" stroke-width="0.5" stroke-linecap="butt"/></g></g></svg>