<svg version="1.1" xmlns="http://www.w3.org/2000/svg" xmlns:xlink="http://www.w3.org/1999/xlink" width="124.3856" height="122.9497" viewBox="0,0,124.3856,122.9497"><g transform="translate(-177.8975,-127)"><g data-paper-data="{&quot;isPaintingLayer&quot;:true}" fill-rule="nonzero" stroke-linecap="butt" stroke-miterlimit="10" stroke-dasharray="" stroke-dashoffset="0" style="mix-blend-mode: normal"><path d="M240.0902,147.0955c5.2138,-11.8555 16.4664,-20.0955 29.5404,-20.0955c18.0242,0 32.6525,15.6145 32.6525,34.8538c0,37.8904 -38.3634,49.6396 -62.1929,88.0959c-25.2048,-38.6944 -62.1927,-48.9563 -62.1927,-88.0959c0,-19.2393 14.6283,-34.8538 32.6525,-34.8538c13.0741,0 24.3267,8.24 29.5402,20.0955z" fill="#0b718a" stroke="#ff99e5" stroke-width="0" stroke-linejoin="round"/><path d="M223.70186,159.94607c-2.5,0 -2.5,-2.5 -2.5,-2.5l0.35627,-0.02484c-1.76429,-3.03992 -2.09385,-5.22285 -2.10437,-8.71566c0,0 0,-2.5 2.5,-2.5c2.5,0 2.5,2.5 2.5,2.5c-0.00925,2.62446 -0.00743,3.91871 1.39183,6.14319l0.35627,2.59731c0,0 0,2.5 -2.5,2.5z" fill="#8e0303" stroke="none" stroke-width="0.5" stroke-linejoin="miter"/><path d="M252.23064,159.51063c0,-1.99926 0,-3.99852 0,-5.99778c0,0 0,-2.5 2.5,-2.5c2.5,0 2.5,2.5 2.5,2.5c0,2.62215 0,5.2443 0,7.86645l-4.70479,1.33074c0,0 -1.5505,-1.5505 -0.29521,-3.19941z" fill="#8e0303" stroke="none" stroke-width="0.5" stroke-linejoin="miter"/><path d="M222.47427,184.79207c2.37171,-0.79057 3.16228,1.58114 3.16228,1.58114l-0.37295,0.14947c0.92655,0.81171 2.11855,1.39576 2.77964,2.43514c0.47556,0.74768 0.01797,1.84139 0.43703,2.62215c0.85056,1.58471 3.18361,1.76935 4.46034,3.03612c1.36961,1.35892 2.4908,4.17585 4.50212,4.98725c1.20665,0.48678 2.25662,-1.29597 3.38545,-1.94304c2.08306,-1.19407 4.25928,-2.32446 6.01634,-3.96081c2.33643,-2.17592 3.8046,-6.14339 5.21302,-8.96482c0,0 1.11803,-2.23607 3.3541,-1.11803c2.23607,1.11803 1.11803,3.3541 1.11803,3.3541c-1.68125,3.3574 -3.38946,7.65559 -6.14963,10.26428c-2.07233,1.9586 -4.61014,3.38002 -7.09441,4.77969c-2.54441,1.43355 -3.66144,3.2223 -7.10315,2.42721c-3.15337,-0.72848 -4.90035,-4.39639 -6.86053,-6.3754c-1.52415,-1.53879 -3.98067,-2.13592 -5.15421,-3.95628c-0.48013,-0.74476 -0.00969,-1.8459 -0.43703,-2.62215c-0.30737,-0.55833 -1.0604,-0.70737 -1.59061,-1.06106l-1.247,-2.47268c0,0 -0.79057,-2.37171 1.58114,-3.16228z" fill="#8e0303" stroke="none" stroke-width="0.5" stroke-linejoin="miter"/></g></g></svg>