<svg version="1.1" xmlns="http://www.w3.org/2000/svg" xmlns:xlink="http://www.w3.org/1999/xlink" width="530.03003" height="384.38438" viewBox="0,0,530.03003,384.38438"><defs><radialGradient cx="236.997" cy="181.82552" r="265.01502" gradientUnits="userSpaceOnUse" id="color-1"><stop offset="0" stop-color="#0aff00"/><stop offset="1" stop-color="#159b00"/></radialGradient><radialGradient cx="208.5" cy="180.06726" r="179.75" gradientUnits="userSpaceOnUse" id="color-2"><stop offset="0" stop-color="#0aff00"/><stop offset="1" stop-color="#159b00"/></radialGradient></defs><g transform="translate(28.01802,10.36667)"><g data-paper-data="{&quot;isPaintingLayer&quot;:true}" fill-rule="nonzero" stroke-linejoin="miter" stroke-miterlimit="10" stroke-dasharray="" stroke-dashoffset="0" style="mix-blend-mode: normal"><path d="M-28.01802,374.01771v-384.38438h530.03003v384.38438z" fill="url(#color-1)" stroke="none" stroke-width="0" stroke-linecap="butt"/><path d="M90.49777,298.22901l-14.21859,19.72674" data-paper-data="{&quot;index&quot;:null}" fill="none" stroke="#000000" stroke-width="3" stroke-linecap="round"/><path d="M67.37497,341.40841l-6.17853,-7.54243l17.79239,-14.575l6.17853,7.54243z" data-paper-data="{&quot;index&quot;:null}" fill="#ffffff" stroke="#000000" stroke-width="3" stroke-linecap="butt"/><path d="M51.95224,324.69841l41.23908,-33.37012l14.30148,17.67389l-41.23908,33.37012z" fill="#454854" stroke="#000000" stroke-width="1.5" stroke-linecap="butt"/><path d="M95.91665,303.80641l-9.92703,3.60974l0.3778,-10.20498l10.50227,-1.33712z" fill="#adc3ff" stroke="#000000" stroke-width="0" stroke-linecap="round"/><path d="M72.7403,312.02927l20.08642,1.25811l-17.42466,4.91681z" fill="#009c50" stroke="#000000" stroke-width="0" stroke-linecap="round"/><path d="M78.29961,326.24712l4.27527,-12.7881l3.34171,11.91916z" fill="#0084ff" stroke="#000000" stroke-width="0" stroke-linecap="round"/><path d="M91.33499,306.55098l7.4064,-5.0173l1.28311,7.01256z" fill="#256b6b" stroke="#000000" stroke-width="0" stroke-linecap="round"/><path d="M64.0503,322.34734l13.9861,7.14416l-12.42454,4.92558l-8.54858,-8.98004z" fill="#0d009a" stroke="#000000" stroke-width="0" stroke-linecap="round"/><path d="M57.99928,320.34683l15.89671,-10.697l-6.19431,13.3169z" fill="#00e8e8" stroke="#000000" stroke-width="0" stroke-linecap="round"/><path d="M80.34318,329.8881l-7.95454,6.4367l-8.49026,0.19047l11.84979,-9.39223z" fill="#00ffb5" stroke="#000000" stroke-width="0" stroke-linecap="round"/><path d="M90.70136,308.1469l3.17586,1.44436l5.63475,-0.83208l4.71941,-2.67196l-0.83453,6.40989l-12.02077,4.27919z" fill="#65f7c1" stroke="#000000" stroke-width="0" stroke-linecap="round"/><path d="M48.35644,318.58141l41.67548,-33.72324l4.23748,5.23671l-41.67548,33.72324z" fill="#5258ff" stroke="#000000" stroke-width="2" stroke-linecap="butt"/><g fill="#ebff4c" stroke="#000000" stroke-width="2" stroke-linecap="butt"><path d="M75.82835,296.53204l6.87318,-5.56169l4.1492,5.12761l-6.87319,5.56168z"/><path d="M82.23274,297.30729c-0.60253,0.48755 -1.48622,0.39436 -1.97379,-0.20817c-0.48755,-0.60253 -0.39436,-1.48623 0.20817,-1.97379c0.60253,-0.48755 1.48623,-0.39437 1.97379,0.20817c0.48755,0.60253 0.39436,1.48623 -0.20817,1.97379z"/></g><g fill="#ebff4c" stroke="#000000" stroke-width="2" stroke-linecap="butt"><path d="M51.30209,316.19783l6.87319,-5.56168l4.1492,5.12761l-6.87319,5.56168z"/><path d="M57.70649,316.97307c-0.60253,0.48755 -1.48623,0.39436 -1.97379,-0.20817c-0.48755,-0.60253 -0.39436,-1.48623 0.20817,-1.97379c0.60253,-0.48755 1.48623,-0.39436 1.97379,0.20818c0.48755,0.60253 0.39435,1.48623 -0.20818,1.97378z"/></g><path d="M63.0789,309.55673l11.36702,-9.37857" fill="#ff5252" stroke="#ff0000" stroke-width="1" stroke-linecap="round"/><path d="M64.20573,311.17239l-2.20702,-2.72746" fill="#5258ff" stroke="#ff0000" stroke-width="2" stroke-linecap="round"/><path d="M76.21154,302.36011l-11.36702,9.37858" fill="#ff5252" stroke="#ff0000" stroke-width="1" stroke-linecap="round"/><path d="M65.97135,313.35434l-2.20702,-2.72745" fill="#5258ff" stroke="#ff0000" stroke-width="2" stroke-linecap="round"/><path d="M91.35612,286.49463l-1.94295,1.39168" fill="#5258ff" stroke="#000000" stroke-width="1.5" stroke-linecap="round"/><path d="M91.89083,288.04784l-1.63647,1.32421" fill="#5258ff" stroke="#000000" stroke-width="1.5" stroke-linecap="round"/><path d="M93.25666,289.28955l-1.96376,1.58906" fill="#5258ff" stroke="#000000" stroke-width="1.5" stroke-linecap="round"/><path d="M66.34489,341.0348l41.67548,-33.72324l4.23748,5.23671l-41.67548,33.72324z" fill="#5258ff" stroke="#000000" stroke-width="2" stroke-linecap="butt"/><g fill="#ebff4c" stroke="#000000" stroke-width="2" stroke-linecap="butt"><path d="M93.81679,318.98543l6.87319,-5.56168l4.14919,5.12762l-6.87318,5.56168z"/><path d="M100.2212,319.76068c-0.60253,0.48755 -1.48623,0.39435 -1.97379,-0.20817c-0.48755,-0.60253 -0.39436,-1.48623 0.20817,-1.9738c0.60253,-0.48755 1.48623,-0.39436 1.97379,0.20818c0.48755,0.60253 0.39436,1.48623 -0.20817,1.97379z"/></g><g fill="#ebff4c" stroke="#000000" stroke-width="2" stroke-linecap="butt"><path d="M69.29054,338.65121l6.87319,-5.56168l4.1492,5.12761l-6.87319,5.56168z"/><path d="M75.69495,339.42647c-0.60253,0.48755 -1.48623,0.39435 -1.97379,-0.20817c-0.48755,-0.60253 -0.39436,-1.48623 0.20817,-1.97379c0.60253,-0.48755 1.48623,-0.39435 1.97379,0.20817c0.48755,0.60253 0.39436,1.48623 -0.20817,1.97379z"/></g><path d="M92.43438,322.63154l-11.36702,9.37857" fill="#5258ff" stroke="#ff0000" stroke-width="1" stroke-linecap="round"/><path d="M82.19419,333.62577l-2.20702,-2.72745" fill="#5258ff" stroke="#ff0000" stroke-width="1.5" stroke-linecap="round"/><path d="M82.83297,334.19207l11.36702,-9.37857" fill="#5258ff" stroke="#ff0000" stroke-width="1" stroke-linecap="round"/><path d="M83.9598,335.80772l-2.20702,-2.72745" fill="#5258ff" stroke="#ff0000" stroke-width="1.5" stroke-linecap="round"/><path d="M109.34458,308.94803l-1.94295,1.39168" fill="#5258ff" stroke="#000000" stroke-width="1.5" stroke-linecap="round"/><path d="M109.87928,310.50122l-1.63647,1.32421" fill="#5258ff" stroke="#000000" stroke-width="1.5" stroke-linecap="round"/><path d="M111.24512,311.74294l-1.96377,1.58906" fill="#5258ff" stroke="#000000" stroke-width="1.5" stroke-linecap="round"/><path d="M65.97057,317.14617l4.03663,-3.2664l10.59369,13.09177l-4.03664,3.26639z" fill-opacity="0.6549" fill="#8dffff" stroke="#000000" stroke-width="2" stroke-linecap="butt"/><path d="M68.06349,319.06329l3.49113,-2.82498l1.32422,1.63648l-3.49113,2.82498z" fill="none" stroke="#000000" stroke-width="2" stroke-linecap="butt"/><path d="M72.67991,325.43763l3.49114,-2.82498l1.32421,1.63647l-3.49113,2.82498z" fill="none" stroke="#000000" stroke-width="2" stroke-linecap="butt"/><path d="M97.28943,304.98233c0,0 0.44384,6.54393 -0.92754,10.17215c-2.30913,6.10921 -6.04343,9.5893 -12.46251,10.79343c-1.60071,0.30027 -3.92147,-0.63864 -3.92147,-0.63864l-9.02545,-10.93063c0,0 -0.82282,-1.85546 -0.04707,-4.1862c0.8808,-2.64632 3.49166,-5.8883 5.74088,-7.41521c2.1251,-1.44265 4.38732,-2.48036 7.48819,-2.65423c2.46753,-0.13835 9.77949,0.91099 9.77949,0.91099z" fill-opacity="0.78039" fill="#56ffff" stroke="#000000" stroke-width="0.5" stroke-linecap="round"/><path d="M97.31277,307.15296l-3.73116,3.0192l-1.76391,-0.30578l-3.76076,-4.64757l0.25582,-1.29021l3.53178,-3.39946z" fill="#001b4a" stroke="#000000" stroke-width="0.5" stroke-linecap="round"/><path d="M98.89072,302.40986l-1.7084,2.57395l-4.84397,3.91966l-2.75736,-3.94302l4.38574,-3.54889l3.24148,-1.21481z" fill="#0021ff" stroke="#000000" stroke-width="0.5" stroke-linecap="round"/><path d="M97.43258,300.34016l24.87438,-20.12801l1.48311,1.83285l-24.87437,20.12801z" fill="#ddff29" stroke="#000000" stroke-width="0.5" stroke-linecap="butt"/><path d="M77.95985,317.5054l5.95675,-4.82012" fill="none" stroke="#000000" stroke-width="0.5" stroke-linecap="round"/><path d="M92.62795,294.80415l2.27764,2.81473" fill="none" stroke="#000000" stroke-width="1.5" stroke-linecap="round"/><path d="M100.62619,304.68843l2.46454,3.31342" fill="none" stroke="#000000" stroke-width="1.5" stroke-linecap="round"/><path d="M56.35472,322.53116l5.36763,-4.34341l12.12978,14.99008l-5.36763,4.34341z" fill-opacity="0.87843" fill="#74c0c4" stroke="#000000" stroke-width="1.5" stroke-linecap="butt"/><path d="M58.36452,324.47943l4.9219,-4.09106" fill="none" stroke="#000000" stroke-width="1.5" stroke-linecap="round"/><path d="M64.80053,323.0627l-4.64757,3.76076" fill="none" stroke="#000000" stroke-width="1.5" stroke-linecap="round"/><path d="M66.60146,325.2883l-4.84396,3.91967" fill="none" stroke="#000000" stroke-width="1.5" stroke-linecap="round"/><path d="M73.4179,312.69561c0,0 0.38464,-3.05135 1.40331,-3.89282c0.488,-0.40312 0.95645,-1.14241 1.95284,-1.37662c1.28039,-0.30096 3.07131,-0.0399 3.07131,-0.0399l8.44696,10.17111c0,0 0.66443,1.64734 0.14344,2.99212c-0.45215,1.16713 -2.05405,2.02017 -2.57236,2.43958c-1.03924,0.84093 -4.05151,-0.18782 -4.05151,-0.18782z" fill-opacity="0.72549" fill="#4c00ff" stroke="#000000" stroke-width="0.5" stroke-linecap="butt"/><path d="M68.32143,327.14613l-4.39824,3.66731" fill="none" stroke="#000000" stroke-width="1.5" stroke-linecap="round"/><path d="M70.18481,328.77959l-4.77849,3.8667" fill="none" stroke="#000000" stroke-width="1.5" stroke-linecap="round"/><path d="M71.77687,331.28252l-4.38574,3.54889" fill="none" stroke="#000000" stroke-width="1.5" stroke-linecap="round"/><path d="M66.67016,339.96426l-13.12369,-16.35222" fill="none" stroke="#000000" stroke-width="1.5" stroke-linecap="round"/><path d="M67.8764,339.31315l-13.29809,-16.96935" fill="none" stroke="#000000" stroke-width="1.5" stroke-linecap="round"/><path d="M76.25677,309.24302c1.19302,-0.96537 2.94274,-0.78083 3.9081,0.41219c0.96537,1.19302 0.78083,2.94273 -0.41219,3.9081c-1.19302,0.96537 -2.94273,0.78083 -3.9081,-0.41218c-0.96537,-1.19302 -0.78083,-2.94274 0.41218,-3.9081z" fill="#0015ff" stroke="#000000" stroke-width="0.5" stroke-linecap="butt"/><path d="M82.12061,316.84658c1.19302,-0.96537 2.94273,-0.78083 3.9081,0.41218c0.96537,1.19302 0.78083,2.94273 -0.41218,3.9081c-1.19302,0.96537 -2.94274,0.78083 -3.9081,-0.41219c-0.96537,-1.19302 -0.78083,-2.94273 0.41219,-3.9081z" fill="#0015ff" stroke="#000000" stroke-width="0.5" stroke-linecap="butt"/><path d="M348.69912,15.51923l-31.13285,54.52599l-23.36828,-13.34265l31.13285,-54.52599z" fill="#918984" stroke="#000000" stroke-width="1.5" stroke-linecap="butt"/><path d="M309.19716,57.45629l9.39552,-8.24782l3.96998,11.41608l-11.00676,5.98893z" fill="#c2c2c2" stroke="#000000" stroke-width="0" stroke-linecap="round"/><path d="M331.22062,38.42607l-22.69138,7.24675l17.1018,-12.91207z" fill="#009c0d" stroke="#000000" stroke-width="0" stroke-linecap="round"/><path d="M318.97848,25.1368l0.78236,15.93998l-8.80857,-11.70759z" fill="#00ff83" stroke="#000000" stroke-width="0" stroke-linecap="round"/><path d="M313.0699,52.46024l-6.01082,8.71654l-4.42931,-7.18165z" fill="#ffffff" stroke="#000000" stroke-width="0" stroke-linecap="round"/><path d="M336.36842,23.31227l-18.49429,-1.86641l11.58409,-10.77244l13.28714,6.22827z" fill="#ffaf00" stroke="#000000" stroke-width="0" stroke-linecap="round"/><path d="M343.90118,22.91733l-12.93222,18.62948l1.10659,-17.34803z" fill="#e8c000" stroke="#000000" stroke-width="0" stroke-linecap="round"/><path d="M315.15982,22.00009l6.00516,-10.51743l9.28089,-3.85956l-9.03028,15.45104z" fill="#ffde00" stroke="#000000" stroke-width="0" stroke-linecap="round"/><path d="M313.08264,50.42797l-4.12308,-0.22764l-5.85614,3.33968l-4.05585,4.97517l-1.835,-7.42733l11.41667,-9.88605z" fill="#7a7a7a" stroke="#000000" stroke-width="0" stroke-linecap="round"/><g stroke="#000000"><g><path d="M354.77872,20.61637l-31.4623,55.10299l-6.92394,-3.95338l31.4623,-55.10299z" fill="#b1b1b1" stroke-width="2" stroke-linecap="butt"/><g stroke-width="2" stroke-linecap="butt"><path d="M333.96162,56.74042l-5.18881,9.08767l-6.77969,-3.87101l5.18881,-9.08767z" fill="#b1b1b1"/><path d="M326.56582,58.63842c0.45488,-0.79667 1.46945,-1.07373 2.2661,-0.61886c0.79667,0.45488 1.07375,1.46944 0.61887,2.26611c-0.45488,0.79667 -1.46945,1.07374 -2.26612,0.61886c-0.79667,-0.45488 -1.07374,-1.46945 -0.61886,-2.26612z" fill="#926548"/></g><g stroke-width="2" stroke-linecap="butt"><path d="M352.55496,24.51108l-5.18881,9.08767l-6.77969,-3.87101l5.18881,-9.08767z" fill="#b1b1b1"/><path d="M345.15917,26.40909c0.45488,-0.79667 1.46945,-1.07373 2.2661,-0.61886c0.79667,0.45488 1.07375,1.46944 0.61887,2.26611c-0.45488,0.79667 -1.46945,1.07374 -2.26611,0.61887c-0.79667,-0.45488 -1.07374,-1.46945 -0.61886,-2.26612z" fill="#926548"/></g><path d="M333.91882,52.12538l8.50376,-15.22847" fill="#926548" stroke-width="0.5" stroke-linecap="round"/><path d="M340.48546,35.59959l3.60622,2.05905" fill="#b1b1b1" stroke-width="0.5" stroke-linecap="round"/><path d="M331.03384,50.47814l8.50376,-15.22847" fill="#926548" stroke-width="0.5" stroke-linecap="round"/><path d="M337.60049,33.95235l3.60622,2.05905" fill="#926548" stroke-width="0.5" stroke-linecap="round"/></g><path d="M321.15271,74.48392l1.5444,-2.36986" fill="#926548" stroke-width="1.5" stroke-linecap="round"/><path d="M319.89542,73.00095l1.23543,-2.16373" fill="#926548" stroke-width="1.5" stroke-linecap="round"/><path d="M319.33798,69.62226l-1.48251,2.59647" fill="#926548" stroke-width="1.5" stroke-linecap="round"/></g><g stroke="#000000"><g><path d="M325.29012,3.5879l-31.4623,55.10299l-6.92394,-3.95338l31.4623,-55.10299z" fill="#b1b1b1" stroke-width="2" stroke-linecap="butt"/><g fill="#b1b1b1" stroke-width="2" stroke-linecap="butt"><path d="M304.473,39.71195l-5.18881,9.08767l-6.77969,-3.87101l5.18881,-9.08767z"/><path d="M297.07721,41.60996c0.45488,-0.79667 1.46945,-1.07373 2.2661,-0.61886c0.79667,0.45488 1.07375,1.46944 0.61887,2.26611c-0.45488,0.79667 -1.46945,1.07374 -2.26611,0.61887c-0.79667,-0.45488 -1.07374,-1.46945 -0.61886,-2.26612z"/></g><g stroke-width="2" stroke-linecap="butt"><path d="M323.06634,7.48262l-5.1888,9.08766l-6.77969,-3.87101l5.1888,-9.08766z" fill="#b1b1b1"/><path d="M315.67055,9.38063c0.45488,-0.79667 1.46944,-1.07375 2.26611,-0.61887c0.79667,0.45488 1.07373,1.46945 0.61886,2.2661c-0.45488,0.79667 -1.46944,1.07374 -2.2661,0.61886c-0.79667,-0.45488 -1.07374,-1.46944 -0.61886,-2.2661z" fill="#926548"/></g><path d="M304.4302,35.09691l8.50377,-15.22847" fill="#926548" stroke-width="0.5" stroke-linecap="round"/><path d="M314.60307,20.63018l-3.60622,-2.05905" fill="#926548" stroke-width="0.5" stroke-linecap="round"/><path d="M301.54524,33.44968l8.50376,-15.22848" fill="#b1b1b1" stroke-width="0.5" stroke-linecap="round"/><path d="M308.11188,16.92389l3.60622,2.05905" fill="#b1b1b1" stroke-width="0.5" stroke-linecap="round"/></g><path d="M291.66409,57.45545l1.5444,-2.36987" fill="#926548" stroke-width="1.5" stroke-linecap="round"/><path d="M290.4068,55.97249l1.23543,-2.16373" fill="#926548" stroke-width="1.5" stroke-linecap="round"/><path d="M288.36686,55.19027l1.48251,-2.59647" fill="#b1b1b1" stroke-width="1.5" stroke-linecap="round"/></g><path d="M306.66273,56.64679c0,0 -5.49818,-11.72233 -5.54547,-16.31291c-0.04191,-4.06807 2.04957,-6.79441 2.91215,-9.7048c0.78112,-2.6355 2.13761,-4.98854 5.26459,-6.93641c1.63613,-1.01919 7.72171,3.09695 7.72171,3.09695l14.65147,8.17431c0,0 7.60845,3.91552 7.75484,6.81924c0.19646,3.89688 -1.76361,4.95415 -3.38919,6.73781c-1.63784,1.7971 -2.33689,5.23888 -5.91405,6.86944c-2.66163,1.21324 -18.0365,4.1595 -18.0365,4.1595z" fill="#949494" stroke="#000000" stroke-width="0.5" stroke-linecap="round"/><path d="M305.70395,54.26312l2.81678,-4.93331l2.07663,-0.42101l6.14499,3.50862l0.27249,1.53276l-2.43345,5.26694z" fill="#000000" stroke="#000000" stroke-width="0.5" stroke-linecap="round"/><path d="M306.00266,60.17192l0.77756,-3.57281l3.65687,-6.40465l4.73564,3.16298l-3.31095,5.79879l-3.05242,2.73299z" fill="#595959" stroke="#000000" stroke-width="0.5" stroke-linecap="round"/><path d="M308.50031,61.82753l-18.77855,32.8887l-2.42337,-1.38368l18.77855,-32.8887z" fill="#ffffff" stroke="#000000" stroke-width="0.5" stroke-linecap="butt"/><path d="M330.24885,38.20913c0,0 0.88746,3.53027 0.12581,4.89608c-0.36487,0.6543 -0.56367,1.67094 -1.56179,2.35751c-1.28259,0.88225 -3.36978,1.3642 -3.36978,1.3642l-13.68705,-7.58541c0,0 -1.44082,-1.53103 -1.44435,-3.23794c-0.00307,-1.48143 1.39677,-3.11071 1.78806,-3.796c0.78455,-1.37407 4.54859,-1.53442 4.54859,-1.53442z" fill="#b5b5b5" stroke="#000000" stroke-width="0.5" stroke-linecap="butt"/><path d="M328.02535,42.90735c-0.90065,1.5774 -2.9095,2.126 -4.48689,1.22535c-1.5774,-0.90065 -2.126,-2.90949 -1.22535,-4.48689c0.90065,-1.5774 2.9095,-2.12601 4.48689,-1.22535c1.5774,0.90065 2.12601,2.90951 1.22535,4.48689z" fill="#737373" stroke="#000000" stroke-width="0.5" stroke-linecap="butt"/><path d="M318.20817,37.18724c-0.90065,1.5774 -2.9095,2.126 -4.48689,1.22535c-1.5774,-0.90065 -2.126,-2.90949 -1.22535,-4.48689c0.90065,-1.5774 2.90949,-2.126 4.48689,-1.22535c1.5774,0.90065 2.12601,2.9095 1.22535,4.48689z" fill="#737373" stroke="#000000" stroke-width="0.5" stroke-linecap="butt"/><path d="M318.0987,42.40393c0,0 2.86697,-5.02122 3.65687,-6.40464c0.3786,-0.66307 0.8401,-1.47134 0.8401,-1.47134" fill="none" stroke="#000000" stroke-width="0.5" stroke-linecap="round"/><path d="M335.97143,29.77052l-3.0474,5.3372l-17.30984,-9.88344l3.0474,-5.3372z" fill-opacity="0.64706" fill="#d6d6d6" stroke="#000000" stroke-width="2" stroke-linecap="butt"/><path d="M332.83936,28.55603l-2.63558,4.61596l-2.16373,-1.23543l2.63558,-4.61596z" fill="none" stroke="#000000" stroke-width="2" stroke-linecap="butt"/><path d="M325.00853,23.51101l-2.63558,4.61596l-2.16373,-1.23543l2.63558,-4.61596z" fill="none" stroke="#000000" stroke-width="2" stroke-linecap="butt"/><path d="M344.26071,19.69878l-4.05221,7.09704l-19.81977,-11.31654l4.05221,-7.09704z" fill-opacity="0.73333" fill="#b5b5b5" stroke="#000000" stroke-width="1.5" stroke-linecap="butt"/><path d="M337.53775,25.04136l3.66916,-6.62715" fill="none" stroke="#000000" stroke-width="1.5" stroke-linecap="round"/><path d="M338.22711,16.59806l-3.50862,6.14499" fill="#bdff00" stroke="#000000" stroke-width="1.5" stroke-linecap="round"/><path d="M331.77581,21.06287l3.65687,-6.40465" fill="none" stroke="#000000" stroke-width="1.5" stroke-linecap="round"/><path d="M329.0805,19.75345l3.27382,-5.93476" fill="none" stroke="#000000" stroke-width="1.5" stroke-linecap="round"/><path d="M329.93095,12.43501l-3.60746,6.31809" fill="none" stroke="#000000" stroke-width="1.5" stroke-linecap="round"/><path d="M323.49194,16.67729l3.31095,-5.7988" fill="none" stroke="#000000" stroke-width="1.5" stroke-linecap="round"/><path d="M446.91195,63.98189l-49.0897,40.18418l-17.22179,-21.03844l49.0897,-40.18418z" fill="#926548" stroke="#000000" stroke-width="1.5" stroke-linecap="butt"/><path d="M394.47882,89.26268l11.84673,-4.38379l-0.38278,12.20607l-12.54999,1.66999z" fill="#c38200" stroke="#000000" stroke-width="0" stroke-linecap="round"/><path d="M422.13844,79.27273l-24.02865,-1.36867l20.80386,-5.99754z" fill="#009c0d" stroke="#000000" stroke-width="0" stroke-linecap="round"/><path d="M415.39424,62.30805l-5.02606,15.32143l-4.07675,-14.23081z" fill="#00ff83" stroke="#000000" stroke-width="0" stroke-linecap="round"/><path d="M399.9392,85.94962l-8.82293,6.04996l-1.5818,-8.37721z" fill="#ffb959" stroke="#000000" stroke-width="0" stroke-linecap="round"/><path d="M432.46051,66.87521l-16.77344,-8.44871l14.82446,-5.97421l10.28345,10.68088z" fill="#ffaf00" stroke="#000000" stroke-width="0" stroke-linecap="round"/><path d="M439.71008,69.22658l-18.93758,12.8994l7.31735,-15.96677z" fill="#e8c000" stroke="#000000" stroke-width="0" stroke-linecap="round"/><path d="M412.92584,57.96785l9.46883,-7.75106l10.1517,-0.28517l-14.10694,11.31173z" fill="#ffde00" stroke="#000000" stroke-width="0" stroke-linecap="round"/><path d="M400.68613,84.03687l-3.80759,-1.70574l-6.73263,1.03313l-5.62558,3.22714l0.95462,-7.67086l14.34598,-5.1985z" fill="#7a4d2a" stroke="#000000" stroke-width="0" stroke-linecap="round"/><g fill="#926548" stroke="#000000"><g><path d="M450.80453,70.98925l-49.60917,40.60941l-5.10275,-6.23362l49.60917,-40.60941z" stroke-width="2" stroke-linecap="butt"/><g stroke-width="2" stroke-linecap="butt"><path d="M418.10163,97.54252l-8.18162,6.69737l-4.99645,-6.10376l8.18161,-6.69736z"/><path d="M410.43775,96.65875c0.71724,-0.58712 1.77462,-0.48164 2.36174,0.2356c0.58712,0.71723 0.48165,1.77462 -0.23559,2.36173c-0.71724,0.58712 -1.77463,0.48165 -2.36175,-0.23559c-0.58712,-0.71723 -0.48163,-1.77463 0.2356,-2.36175z"/></g><g stroke-width="2" stroke-linecap="butt"><path d="M447.29812,73.85955l-8.18161,6.69736l-4.99645,-6.10374l8.18161,-6.69736z"/><path d="M439.63424,72.97578c0.71724,-0.58712 1.77462,-0.48164 2.36174,0.2356c0.58712,0.71724 0.48164,1.77462 -0.23559,2.36175c-0.71724,0.58712 -1.77462,0.48164 -2.36175,-0.23559c-0.58712,-0.71724 -0.48164,-1.77462 0.2356,-2.36174z"/></g><path d="M419.73012,93.17301l13.52972,-11.29214" stroke-width="0.5" stroke-linecap="round"/><path d="M434.5591,83.20311l-2.65769,-3.24667" stroke-width="0.5" stroke-linecap="round"/><path d="M431.1337,79.28354l-13.52972,11.29214" stroke-width="0.5" stroke-linecap="round"/><path d="M429.77526,77.35909l2.65769,3.24667" stroke-width="0.5" stroke-linecap="round"/></g><path d="M399.60076,109.65065l2.31404,-1.67735" stroke-width="1.5" stroke-linecap="round"/><path d="M398.95084,107.79689l1.94801,-1.59461" stroke-width="1.5" stroke-linecap="round"/><path d="M397.30911,106.32123l2.3376,-1.91353" stroke-width="1.5" stroke-linecap="round"/></g><g fill="#926548" stroke="#000000"><g><path d="M429.14139,44.26023l-49.60916,40.60941l-5.10275,-6.23362l49.60915,-40.60941z" stroke-width="2" stroke-linecap="butt"/><g stroke-width="2" stroke-linecap="butt"><path d="M396.43849,70.8135l-8.18162,6.69737l-4.99645,-6.10375l8.18162,-6.69737z"/><path d="M388.7746,69.92974c0.71724,-0.58712 1.77462,-0.48164 2.36174,0.2356c0.58712,0.71723 0.48164,1.77462 -0.2356,2.36174c-0.71724,0.58712 -1.77462,0.48164 -2.36175,-0.23559c-0.58712,-0.71723 -0.48163,-1.77463 0.2356,-2.36175z"/></g><g stroke-width="2" stroke-linecap="butt"><path d="M425.63498,47.13052l-8.18162,6.69737l-4.99645,-6.10374l8.18162,-6.69737z"/><path d="M417.9711,46.24675c0.71724,-0.58712 1.77462,-0.48164 2.36174,0.2356c0.58712,0.71724 0.48164,1.77462 -0.2356,2.36174c-0.71724,0.58712 -1.77462,0.48164 -2.36174,-0.2356c-0.58712,-0.71724 -0.48164,-1.77462 0.2356,-2.36174z"/></g><path d="M398.06699,66.44399l13.52972,-11.29214" stroke-width="0.5" stroke-linecap="round"/><path d="M412.89596,56.47408l-2.65769,-3.24667" stroke-width="0.5" stroke-linecap="round"/><path d="M395.94084,63.84666l13.52972,-11.29214" stroke-width="0.5" stroke-linecap="round"/><path d="M408.11212,50.63007l2.65769,3.24667" stroke-width="0.5" stroke-linecap="round"/></g><path d="M377.93762,82.92163l2.31404,-1.67735" stroke-width="1.5" stroke-linecap="round"/><path d="M379.23571,79.47326l-1.94801,1.59461" stroke-width="1.5" stroke-linecap="round"/><path d="M375.64598,79.59221l2.33761,-1.91354" stroke-width="1.5" stroke-linecap="round"/></g><path d="M392.38045,87.58245c0,0 -0.57501,-7.82249 1.04041,-12.17055c1.40886,-3.79208 5.72986,-4.5224 8.25713,-6.68754c2.36579,-2.0268 2.85511,-5.58473 6.57305,-6.30395c1.91217,-0.3699 4.69376,0.73722 4.69376,0.73722l10.86691,13.01025c0,0 0.99652,2.21327 0.08459,5.00571c-1.03539,3.17053 -5.50012,4.60335 -8.17949,6.4445c-2.53152,1.73955 -3.86529,5.45751 -7.57226,5.68639c-2.94984,0.18213 -11.70087,-1.02327 -11.70087,-1.02327z" fill="#ffcbad" stroke="#000000" stroke-width="0.5" stroke-linecap="round"/><path d="M392.33788,84.98687l4.44144,-3.63571l2.11143,0.35374l4.5287,5.53233l-0.29721,1.54461l-4.20044,4.0891z" fill="#ff8b00" stroke="#000000" stroke-width="0.5" stroke-linecap="round"/><path d="M390.48297,90.66954l2.02558,-3.08957l5.76608,-4.72004l3.32404,4.69659l-5.22066,4.27356l-3.86808,1.47463z" fill="#593c00" stroke="#000000" stroke-width="0.5" stroke-linecap="round"/><path d="M392.24066,93.13471l-29.60965,24.23807l-1.78597,-2.18176l29.60966,-24.23808z" fill="#ffad4f" stroke="#000000" stroke-width="0.5" stroke-linecap="butt"/><path d="M421.30007,78.71665c0,0 -0.43934,3.65154 -1.65181,4.66468c-0.58084,0.48535 -1.13603,1.37262 -2.32598,1.65942c-1.5291,0.36855 -3.67253,0.06847 -3.67253,0.06847l-10.16999,-12.10589c0,0 -0.80568,-1.96546 -0.19177,-3.57713c0.53281,-1.39876 2.44266,-2.42969 3.05964,-2.93473c1.23707,-1.01265 4.84623,0.1972 4.84623,0.1972z" fill="#ffb570" stroke="#000000" stroke-width="0.5" stroke-linecap="butt"/><path d="M417.50336,82.34513c-1.42013,1.16249 -3.51374,0.95364 -4.67625,-0.46649c-1.1625,-1.42013 -0.95365,-3.51375 0.46648,-4.67624c1.42013,-1.1625 3.51375,-0.95365 4.67625,0.46649c1.1625,1.42013 0.95365,3.51375 -0.46648,4.67624z" fill="#ff9800" stroke="#000000" stroke-width="0.5" stroke-linecap="butt"/><path d="M410.30985,73.39844c-1.42013,1.1625 -3.51375,0.95365 -4.67626,-0.46648c-1.1625,-1.42013 -0.95365,-3.51375 0.46649,-4.67625c1.42013,-1.1625 3.51375,-0.95365 4.67625,0.46647c1.1625,1.42013 0.95365,3.51375 -0.46648,4.67626z" fill="#ff9800" stroke="#000000" stroke-width="0.5" stroke-linecap="butt"/><path d="M408.32014,78.28053l7.09073,-5.80439" fill="none" stroke="#000000" stroke-width="0.5" stroke-linecap="round"/><path d="M429.75055,72.82467l-4.80508,3.93337l-12.75688,-15.58403l4.80507,-3.93337z" fill-opacity="0.64706" fill="#d6d000" stroke="#000000" stroke-width="2" stroke-linecap="butt"/><path d="M427.23479,70.54624l-4.15573,3.40183l-1.59461,-1.94801l4.15573,-3.40183z" fill="none" stroke="#000000" stroke-width="2" stroke-linecap="butt"/><path d="M421.67119,62.95478l-4.15574,3.40183l-1.59461,-1.94801l4.15573,-3.40183z" fill="none" stroke="#000000" stroke-width="2" stroke-linecap="butt"/><path d="M441.21316,66.32006l-6.38945,5.23032l-14.60662,-17.84371l6.38945,-5.23032z" fill-opacity="0.73333" fill="#8cb500" stroke="#000000" stroke-width="1.5" stroke-linecap="butt"/><path d="M432.93844,68.92937l5.85814,-4.92553" fill="none" stroke="#000000" stroke-width="1.5" stroke-linecap="round"/><path d="M436.64207,61.21284l-5.53234,4.5287" fill="#bdff00" stroke="#000000" stroke-width="1.5" stroke-linecap="round"/><path d="M434.70713,58.37221l-5.76608,4.72004" fill="none" stroke="#000000" stroke-width="1.5" stroke-linecap="round"/><path d="M426.87167,60.88222l5.23479,-4.41526" fill="none" stroke="#000000" stroke-width="1.5" stroke-linecap="round"/><path d="M430.3205,54.28519l-5.68817,4.65626" fill="none" stroke="#000000" stroke-width="1.5" stroke-linecap="round"/><path d="M422.71156,55.95911l5.22065,-4.27355" fill="none" stroke="#000000" stroke-width="1.5" stroke-linecap="round"/><path d="M451.5222,163.21046l-50.11702,28.59203l-12.25372,-21.47872l50.11702,-28.59203z" fill="#003e02" stroke="#000000" stroke-width="1.5" stroke-linecap="butt"/><path d="M400.66699,177.93029l11.2888,-2.13474l-2.19436,10.88819l-11.50791,-0.40561z" fill="#00a757" stroke="#000000" stroke-width="0" stroke-linecap="round"/><path d="M426.98675,173.1661l-21.341,-4.87142l19.56616,-2.22354z" fill="#009c0d" stroke="#000000" stroke-width="0" stroke-linecap="round"/><path d="M423.5114,156.92964l-6.83085,12.97784l-1.49783,-13.38024z" fill="#00ff83" stroke="#000000" stroke-width="0" stroke-linecap="round"/><path d="M406.06622,175.78727l-8.82978,4.0875l-0.14811,-7.75245z" fill="#59ff9f" stroke="#000000" stroke-width="0" stroke-linecap="round"/><path d="M438.12357,163.61355l-13.76092,-10.12043l14.20038,-3.10942l7.60227,11.13799z" fill="#00ff57" stroke="#000000" stroke-width="0" stroke-linecap="round"/><path d="M444.2683,166.82165l-18.9392,8.69606l8.98351,-13.20908z" fill="#52e800" stroke="#000000" stroke-width="0" stroke-linecap="round"/><path d="M421.95597,152.66305l9.66698,-5.51507l9.14716,1.2838l-14.36636,8.00484z" fill="#00ff0a" stroke="#000000" stroke-width="0" stroke-linecap="round"/><path d="M407.02612,174.18521l-3.15591,-2.10712l-6.19441,-0.09452l-5.53435,2.04093l2.0194,-6.73434l13.65365,-2.48633z" fill="#65f76c" stroke="#000000" stroke-width="0" stroke-linecap="round"/><g fill="#00ff54" stroke="#000000"><g><path d="M453.95033,170.08488l-50.64735,28.89459l-3.63073,-6.36406l50.64735,-28.89459z" stroke-width="2" stroke-linecap="butt"/><g stroke-width="2" stroke-linecap="butt"><path d="M420.59593,188.93801l-8.35283,4.76533l-3.55509,-6.23148l8.35283,-4.76533z"/><path d="M413.85709,186.9832c0.73224,-0.41775 1.6645,-0.1628 2.08225,0.56944c0.41775,0.73224 0.1628,1.66451 -0.56944,2.08225c-0.73224,0.41775 -1.66451,0.1628 -2.08225,-0.56944c-0.41775,-0.73224 -0.1628,-1.6645 0.56944,-2.08225z"/></g><g stroke-width="2" stroke-linecap="butt"><path d="M450.37055,172.12718l-8.35283,4.76533l-3.55509,-6.23148l8.35283,-4.76533z"/><path d="M443.63171,170.17237c0.73224,-0.41775 1.6645,-0.1628 2.08225,0.56944c0.41775,0.73224 0.1628,1.66451 -0.56944,2.08225c-0.73224,0.41775 -1.66451,0.1628 -2.08225,-0.56944c-0.41775,-0.73224 -0.1628,-1.6645 0.56944,-2.08225z"/></g><path d="M422.71901,185.26646l13.84575,-8.07482" stroke-width="0.5" stroke-linecap="round"/><path d="M437.52939,178.57444l-1.89101,-3.31462" stroke-width="0.5" stroke-linecap="round"/><path d="M435.05195,174.53995l-13.84575,8.07482" stroke-width="0.5" stroke-linecap="round"/><path d="M436.01658,175.92274l-1.89101,-3.31462" stroke-width="0.5" stroke-linecap="round"/></g><path d="M404.49795,195.83741l-2.32958,1.15329" stroke-width="1.5" stroke-linecap="round"/><path d="M401.86667,195.22971l1.98877,-1.1346" stroke-width="1.5" stroke-linecap="round"/><path d="M400.61817,193.65738l2.38652,-1.36152" stroke-width="1.5" stroke-linecap="round"/></g><path d="M399.04,176.10526c0,0 0.67063,-7.1023 2.77872,-10.7566c3.54958,-6.1531 8.16815,-9.23419 15.26971,-9.40154c1.7709,-0.04173 4.0975,1.37295 4.0975,1.37295l7.77225,13.31541c0,0 0.55801,2.13596 -0.68327,4.50188c-1.40935,2.68626 -4.78024,5.70868 -7.46227,6.95347c-2.53405,1.1761 -5.1443,1.89347 -8.50336,1.53655c-2.673,-0.28401 -10.338,-2.69212 -10.338,-2.69212z" fill="#adffbe" stroke="#000000" stroke-width="0.5" stroke-linecap="round"/><path d="M399.39545,173.77113l4.53439,-2.5869l1.83986,0.63743l3.22228,5.64811l-0.50077,1.34012l-4.38703,3.03003z" fill="#0eff00" stroke="#000000" stroke-width="0.5" stroke-linecap="round"/><path d="M396.87021,178.58596l2.28505,-2.4635l5.88676,-3.35843l2.26869,4.71593l-5.3299,3.04074l-3.69247,0.73582z" fill="#005921" stroke="#000000" stroke-width="0.5" stroke-linecap="round"/><path d="M426.31925,172.54028c0,0 -0.94776,3.20803 -2.18873,3.93272c-0.5945,0.34717 -1.22693,1.05866 -2.33756,1.13541c-1.42716,0.09862 -3.30386,-0.49554 -3.30386,-0.49554l-7.28442,-12.39871c0,0 -0.42446,-1.88479 0.3705,-3.23701c0.68995,-1.17358 2.55902,-1.80847 3.18891,-2.16783c1.26295,-0.72053 4.31612,0.91179 4.31612,0.91179z" fill="#79ff70" stroke="#000000" stroke-width="0.5" stroke-linecap="butt"/><path d="M422.36414,175.21846c-1.44984,0.82714 -3.29571,0.32234 -4.12285,-1.1275c-0.82714,-1.44984 -0.32234,-3.29571 1.1275,-4.12285c1.44984,-0.82714 3.29571,-0.32234 4.12285,1.1275c0.82714,1.44984 0.32234,3.29571 -1.1275,4.12285z" fill="#0cff00" stroke="#000000" stroke-width="0.5" stroke-linecap="butt"/><path d="M417.26989,166.10428c-1.44984,0.82714 -3.29571,0.32234 -4.12285,-1.1275c-0.82714,-1.44984 -0.32234,-3.29571 1.1275,-4.12285c1.44984,-0.82714 3.29571,-0.32234 4.12285,1.1275c0.82714,1.44984 0.32234,3.29571 -1.1275,4.12285z" fill="#0cff00" stroke="#000000" stroke-width="0.5" stroke-linecap="butt"/><path d="M421.98429,166.05076l-7.23913,4.12996" fill="none" stroke="#000000" stroke-width="0.5" stroke-linecap="round"/><path d="M434.79107,168.53797l-4.90564,2.79869l-9.07683,-15.91016l4.90564,-2.79869z" fill-opacity="0.64706" fill="#00d61c" stroke="#000000" stroke-width="2" stroke-linecap="butt"/><path d="M432.8805,166.11319l-4.24271,2.42049l-1.1346,-1.98877l4.24271,-2.42049z" fill="none" stroke="#000000" stroke-width="2" stroke-linecap="butt"/><path d="M429.0424,158.46153l-4.24271,2.42049l-1.1346,-1.98877l4.24271,-2.42049z" fill="none" stroke="#000000" stroke-width="2" stroke-linecap="butt"/><path d="M28.75,217.31726v-74.5h359.5v74.5z" fill="url(#color-2)" stroke="none" stroke-width="0" stroke-linecap="butt"/><path d="M446.05701,164.44307l-6.52316,3.7215l-10.39298,-18.21714l6.52316,-3.7215z" fill-opacity="0.73333" fill="#00b50a" stroke="#000000" stroke-width="1.5" stroke-linecap="butt"/><path d="M438.24065,165.52817l6.00048,-3.52874" fill="none" stroke="#000000" stroke-width="1.5" stroke-linecap="round"/><path d="M437.08412,162.39203l5.64811,-3.22228" fill="none" stroke="#000000" stroke-width="1.5" stroke-linecap="round"/><path d="M441.42782,156.32888l-5.88676,3.35843" fill="none" stroke="#000000" stroke-width="1.5" stroke-linecap="round"/><path d="M439.38451,154.22587l-5.36407,3.16568" fill="none" stroke="#000000" stroke-width="1.5" stroke-linecap="round"/><path d="M432.30655,155.31151l5.8072,-3.31305" fill="none" stroke="#000000" stroke-width="1.5" stroke-linecap="round"/><path d="M436.3662,149.30494l-5.3299,3.04074" fill="none" stroke="#000000" stroke-width="1.5" stroke-linecap="round"/><g fill="#00ff54" stroke="#000000"><g><path d="M438.57665,142.82938l-50.64735,28.89459l-3.63073,-6.36406l50.64735,-28.89459z" stroke-width="2" stroke-linecap="butt"/><g stroke-width="2" stroke-linecap="butt"><path d="M405.22226,161.68252l-8.35283,4.76533l-3.55509,-6.23148l8.35283,-4.76533z"/><path d="M398.48342,159.7277c0.73224,-0.41775 1.6645,-0.1628 2.08225,0.56944c0.41775,0.73224 0.1628,1.66451 -0.56944,2.08225c-0.73224,0.41775 -1.66451,0.1628 -2.08225,-0.56944c-0.41775,-0.73224 -0.1628,-1.6645 0.56944,-2.08225z"/></g><g stroke-width="2" stroke-linecap="butt"><path d="M434.99687,144.87167l-8.35283,4.76533l-3.55509,-6.23148l8.35283,-4.76533z"/><path d="M428.25803,142.91686c0.73224,-0.41775 1.6645,-0.1628 2.08225,0.56944c0.41775,0.73224 0.1628,1.6645 -0.56944,2.08225c-0.73224,0.41775 -1.6645,0.1628 -2.08225,-0.56944c-0.41775,-0.73224 -0.1628,-1.6645 0.56944,-2.08225z"/></g><path d="M407.34533,158.01096l13.84575,-8.07482" stroke-width="0.5" stroke-linecap="round"/><path d="M420.2647,148.00431l1.89101,3.31462" stroke-width="0.5" stroke-linecap="round"/><path d="M405.83253,155.35927l13.84575,-8.07482" stroke-width="0.5" stroke-linecap="round"/><path d="M420.64291,148.66724l-1.89101,-3.31462" stroke-width="0.5" stroke-linecap="round"/></g><path d="M389.12427,168.58191l-2.32958,1.15329" stroke-width="1.5" stroke-linecap="round"/><path d="M388.48177,166.83961l-1.98877,1.1346" stroke-width="1.5" stroke-linecap="round"/><path d="M387.63102,165.04036l-2.38652,1.36152" stroke-width="1.5" stroke-linecap="round"/></g><path d="M398.07263,181.06325l-30.22931,17.24599l-1.27075,-2.22743l30.22931,-17.24599z" fill="#4fff54" stroke="#000000" stroke-width="0.5" stroke-linecap="butt"/></g></g></svg>