<svg version="1.1" xmlns="http://www.w3.org/2000/svg" xmlns:xlink="http://www.w3.org/1999/xlink" width="83.75841" height="37.83889" viewBox="0,0,83.75841,37.83889"><g transform="translate(-209.76732,-159.73348)"><g data-paper-data="{&quot;isPaintingLayer&quot;:true}" fill-rule="nonzero" stroke-linejoin="miter" stroke-miterlimit="10" stroke-dasharray="" stroke-dashoffset="0" style="mix-blend-mode: normal"><path d="M257.25,171.7l-23.5,6.25" data-paper-data="{&quot;index&quot;:null}" fill="none" stroke="#000000" stroke-width="3" stroke-linecap="round"/><path d="M212,190.45v-9.75h23v9.75z" data-paper-data="{&quot;index&quot;:null}" fill="#ffffff" stroke="#000000" stroke-width="3" stroke-linecap="butt"/><path d="M210.65831,167.75012l53.04833,0.3185l-0.1365,22.735l-53.04833,-0.3185z" fill="#454854" stroke="#000000" stroke-width="1.5" stroke-linecap="butt"/><path d="M257.90758,179.4485l-9.96685,-3.49829l6.75911,-7.65498l8.9717,5.62087z" fill="#adc3ff" stroke="#000000" stroke-width="0" stroke-linecap="round"/><path d="M234.76797,171.1228l14.74124,13.70193l-16.59517,-7.23838z" fill="#009c50" stroke="#000000" stroke-width="0" stroke-linecap="round"/><path d="M230.05876,185.64439l11.41104,-7.18343l-4.96803,11.33808z" fill="#0084ff" stroke="#000000" stroke-width="0" stroke-linecap="round"/><path d="M252.62406,178.66827l8.9089,0.81211l-3.45124,6.23789z" fill="#256b6b" stroke="#000000" stroke-width="0" stroke-linecap="round"/><path d="M221.50702,173.59786l6.29217,14.38953l-12.73272,-4.06304l-0.92242,-12.364z" fill="#0d009a" stroke="#000000" stroke-width="0" stroke-linecap="round"/><path d="M218.09377,168.2158l19.07606,1.79867l-13.23067,6.37641z" fill="#00e8e8" stroke="#000000" stroke-width="0" stroke-linecap="round"/><path d="M229.33236,189.75599l-10.2324,-0.06144l-6.68861,-5.2329l15.1186,0.2435z" fill="#00ffb5" stroke="#000000" stroke-width="0" stroke-linecap="round"/><path d="M251.12257,179.50132l1.54151,3.12986l4.88623,2.92704l5.34406,0.92369l-4.7075,4.42974l-12.01076,-4.30721z" fill="#65f7c1" stroke="#000000" stroke-width="0" stroke-linecap="round"/><path d="M211.75298,160.73947l53.60969,0.32187l-0.04044,6.7363l-53.60969,-0.32187z" fill="#5258ff" stroke="#000000" stroke-width="2" stroke-linecap="butt"/><g fill="#ebff4c" stroke="#000000" stroke-width="2" stroke-linecap="butt"><path d="M246.97736,161.0913l8.84139,0.05308l-0.0396,6.59596l-8.84139,-0.05309z"/><path d="M251.44041,165.74946c-0.77507,-0.00466 -1.39962,-0.63674 -1.39497,-1.41182c0.00466,-0.77507 0.63675,-1.39963 1.41182,-1.39497c0.77507,0.00466 1.39963,0.63674 1.39497,1.41182c-0.00466,0.77507 -0.63675,1.39963 -1.41182,1.39497z"/></g><g fill="#ebff4c" stroke="#000000" stroke-width="2" stroke-linecap="butt"><path d="M215.54215,160.76222l8.84139,0.05309l-0.0396,6.59596l-8.84139,-0.05309z"/><path d="M220.00521,165.42038c-0.77507,-0.00466 -1.39963,-0.63675 -1.39497,-1.41182c0.00466,-0.77507 0.63675,-1.39963 1.41182,-1.39497c0.77507,0.00466 1.39963,0.63675 1.39497,1.41183c-0.00466,0.77507 -0.63675,1.39962 -1.41182,1.39496z"/></g><path d="M228.86092,163.0877l14.73649,-0.05186" fill="#ff5252" stroke="#ff0000" stroke-width="1" stroke-linecap="round"/><path d="M228.72985,161.54312l-0.02107,3.50849" fill="#5258ff" stroke="#ff0000" stroke-width="2" stroke-linecap="round"/><path d="M243.58056,165.84262l-14.73649,0.05187" fill="#ff5252" stroke="#ff0000" stroke-width="1" stroke-linecap="round"/><path d="M228.713,164.34991l-0.02106,3.50849" fill="#5258ff" stroke="#ff0000" stroke-width="2" stroke-linecap="round"/><path d="M265.35003,163.16643l-2.38493,-0.15466" fill="#5258ff" stroke="#000000" stroke-width="1.5" stroke-linecap="round"/><path d="M264.77941,164.7068l-2.10509,-0.01264" fill="#5258ff" stroke="#000000" stroke-width="1.5" stroke-linecap="round"/><path d="M262.52302,166.51773l2.52611,0.01516" fill="#5258ff" stroke="#000000" stroke-width="1.5" stroke-linecap="round"/><path d="M211.43991,189.50822l53.60969,0.32188l-0.04044,6.7363l-53.60969,-0.32187z" fill="#5258ff" stroke="#000000" stroke-width="2" stroke-linecap="butt"/><g fill="#ebff4c" stroke="#000000" stroke-width="2" stroke-linecap="butt"><path d="M246.66428,189.86005l8.84139,0.05309l-0.03961,6.59596l-8.84138,-0.05309z"/><path d="M251.12734,194.51822c-0.77507,-0.00466 -1.39962,-0.63675 -1.39497,-1.41182c0.00466,-0.77507 0.63675,-1.39963 1.41182,-1.39498c0.77507,0.00466 1.39963,0.63675 1.39497,1.41183c-0.00466,0.77507 -0.63675,1.39963 -1.41182,1.39497z"/></g><g fill="#ebff4c" stroke="#000000" stroke-width="2" stroke-linecap="butt"><path d="M215.22908,189.53097l8.84139,0.05309l-0.0396,6.59596l-8.84139,-0.05309z"/><path d="M219.69214,194.18914c-0.77507,-0.00466 -1.39962,-0.63675 -1.39497,-1.41182c0.00466,-0.77507 0.63675,-1.39963 1.41182,-1.39497c0.77507,0.00466 1.39962,0.63675 1.39497,1.41182c-0.00466,0.77507 -0.63675,1.39963 -1.41182,1.39497z"/></g><path d="M243.28434,191.80459l-14.73649,0.05186" fill="#5258ff" stroke="#ff0000" stroke-width="1" stroke-linecap="round"/><path d="M228.41678,190.31187l-0.02106,3.50849" fill="#5258ff" stroke="#ff0000" stroke-width="1.5" stroke-linecap="round"/><path d="M243.26749,194.61137l-14.73649,0.05186" fill="#5258ff" stroke="#ff0000" stroke-width="1" stroke-linecap="round"/><path d="M228.39993,193.11866l-0.02106,3.50849" fill="#5258ff" stroke="#ff0000" stroke-width="1.5" stroke-linecap="round"/><path d="M265.03696,191.93519l-2.38493,-0.15466" fill="#5258ff" stroke="#000000" stroke-width="1.5" stroke-linecap="round"/><path d="M262.36125,193.46291l2.10509,0.01264" fill="#5258ff" stroke="#000000" stroke-width="1.5" stroke-linecap="round"/><path d="M264.73606,195.30165l-2.52612,-0.01517" fill="#5258ff" stroke="#000000" stroke-width="1.5" stroke-linecap="round"/><path d="M226.28847,170.7912l5.19257,0.03117l-0.10111,16.84074l-5.19257,-0.03118z" fill-opacity="0.6549" fill="#8dffff" stroke="#000000" stroke-width="2" stroke-linecap="butt"/><path d="M226.69264,173.60052l4.49086,0.02696l-0.01264,2.1051l-4.49086,-0.02696z" fill="none" stroke="#000000" stroke-width="2" stroke-linecap="butt"/><path d="M226.22443,181.457l4.49086,0.02697l-0.01264,2.10509l-4.49086,-0.02696z" fill="none" stroke="#000000" stroke-width="2" stroke-linecap="butt"/><path d="M258.22436,181.2281c0,0 -3.80351,5.34353 -7.16358,7.28122c-5.65768,3.26269 -10.75179,3.58841 -16.48053,0.45216c-1.42856,-0.78208 -2.62887,-2.97906 -2.62887,-2.97906l-0.05523,-14.17513c0,0 0.53928,-1.95677 2.61637,-3.2682c2.35833,-1.48899 6.43248,-2.34243 9.14003,-2.09831c2.55814,0.23066 4.96575,0.86146 7.4747,2.69197c1.99651,1.45664 6.98795,6.90195 6.98795,6.90195z" fill-opacity="0.78039" fill="#56ffff" stroke="#000000" stroke-width="0.5" stroke-linecap="round"/><path d="M256.86689,182.92205l-4.79961,-0.02882l-1.17076,-1.35433l0.03589,-5.97846l1.0155,-0.83597l4.88635,-0.39169z" fill="#001b4a" stroke="#000000" stroke-width="0.5" stroke-linecap="round"/><path d="M261.09325,180.25281l-2.95269,0.90855l-6.23108,-0.03742l0.36563,-4.79758l5.64165,0.03387l3.27737,1.11436z" fill="#0021ff" stroke="#000000" stroke-width="0.5" stroke-linecap="round"/><path d="M261.27682,177.72771l31.99741,0.19212l-0.01416,2.3577l-31.99741,-0.19211z" fill="#ddff29" stroke="#000000" stroke-width="0.5" stroke-linecap="butt"/><path d="M242.99805,178.71266l-7.66253,-0.04601" fill="none" stroke="#000000" stroke-width="0.5" stroke-linecap="round"/><path d="M261.04645,174.02123l0.02174,-3.62076" fill="none" stroke="#000000" stroke-width="1.5" stroke-linecap="round"/><path d="M260.79868,187.2402l0.19318,-4.12497" fill="none" stroke="#000000" stroke-width="1.5" stroke-linecap="round"/><path d="M215.43737,168.86341l6.90471,0.04146l-0.11577,19.28265l-6.90471,-0.04146z" fill-opacity="0.87843" fill="#74c0c4" stroke="#000000" stroke-width="1.5" stroke-linecap="butt"/><path d="M222.15749,171.59837l-6.39998,0.04578" fill="none" stroke="#000000" stroke-width="1.5" stroke-linecap="round"/><path d="M221.63407,174.62667l-5.97846,-0.03589" fill="none" stroke="#000000" stroke-width="1.5" stroke-linecap="round"/><path d="M221.61688,177.4896l-6.23108,-0.03741" fill="none" stroke="#000000" stroke-width="1.5" stroke-linecap="round"/><path d="M234.86989,172.06766c0,0 2.23118,-2.11673 3.55244,-2.12214c0.63296,-0.0026 1.46383,-0.27765 2.38304,0.17258c1.1812,0.57856 2.40119,1.91541 2.40119,1.91541l0.08903,13.22099c0,0 -0.52992,1.6954 -1.78513,2.40555c-1.08938,0.61634 -2.86915,0.26112 -3.53588,0.25712c-1.33683,-0.00803 -3.01515,-2.71272 -3.01515,-2.71272z" fill-opacity="0.72549" fill="#4c00ff" stroke="#000000" stroke-width="0.5" stroke-linecap="butt"/><path d="M221.77012,180.01672l-5.72636,0.04982" fill="none" stroke="#000000" stroke-width="1.5" stroke-linecap="round"/><path d="M216.02961,182.42425l6.14687,0.0369" fill="none" stroke="#000000" stroke-width="1.5" stroke-linecap="round"/><path d="M221.82197,185.40626l-5.64165,-0.03387" fill="none" stroke="#000000" stroke-width="1.5" stroke-linecap="round"/><path d="M212.58001,167.91998l-0.21008,20.96622" fill="none" stroke="#000000" stroke-width="1.5" stroke-linecap="round"/><path d="M214.1819,167.59277l-0.46624,21.55413" fill="none" stroke="#000000" stroke-width="1.5" stroke-linecap="round"/><path d="M239.25388,171.19578c1.53465,0.00922 2.77126,1.26076 2.76204,2.79541c-0.00922,1.53465 -1.26076,2.77125 -2.79541,2.76204c-1.53465,-0.00922 -2.77125,-1.26076 -2.76204,-2.7954c0.00922,-1.53465 1.26076,-2.77126 2.7954,-2.76204z" fill="#0015ff" stroke="#000000" stroke-width="0.5" stroke-linecap="butt"/><path d="M238.9717,180.79365c1.53465,0.00922 2.77125,1.26076 2.76204,2.7954c-0.00922,1.53465 -1.26076,2.77125 -2.7954,2.76204c-1.53465,-0.00922 -2.77126,-1.26076 -2.76204,-2.79541c0.00922,-1.53465 1.26076,-2.77125 2.79541,-2.76203z" fill="#0015ff" stroke="#000000" stroke-width="0.5" stroke-linecap="butt"/></g></g></svg>