<svg version="1.1" xmlns="http://www.w3.org/2000/svg" xmlns:xlink="http://www.w3.org/1999/xlink" width="91.28655" height="41.5371" viewBox="0,0,91.28655,41.5371"><g transform="translate(-210.45082,-155.96169)"><g data-paper-data="{&quot;isPaintingLayer&quot;:true}" fill-rule="nonzero" stroke="#000000" stroke-linejoin="miter" stroke-miterlimit="10" stroke-dasharray="" stroke-dashoffset="0" style="mix-blend-mode: normal"><g><path d="M211.21218,165.06014l57.69267,-0.88075l0.37746,24.72543l-57.69267,0.88075z" fill="#003e02" stroke-width="1.5" stroke-linecap="butt"/><path d="M262.86212,176.68812l-10.91898,-3.57352l7.17285,-8.48045l9.88593,5.90466z" fill="#00a757" stroke-width="0" stroke-linecap="round"/><path d="M237.50728,168.16993l16.34672,14.55863l-18.21319,-7.48722z" fill="#009c0d" stroke-width="0" stroke-linecap="round"/><path d="M232.72235,184.06978l12.24232,-8.07529l-5.14002,12.44406z" fill="#00ff83" stroke-width="0" stroke-linecap="round"/><path d="M257.09871,175.96191l9.70641,0.67702l-3.60862,6.86297z" fill="#59ff9f" stroke-width="0" stroke-linecap="round"/><path d="M223.14444,171.16808l7.17502,15.50178l-13.93968,-4.12367l-1.28904,-13.4234z" fill="#00ff57" stroke-width="0" stroke-linecap="round"/><path d="M219.30835,165.39452l20.78511,1.51463l-14.23967,7.23982z" fill="#52e800" stroke-width="0" stroke-linecap="round"/><path d="M232.02756,188.55758l-11.12824,0.16989l-7.39431,-5.5356l16.44575,-0.08493z" fill="#00ff0a" stroke-width="0" stroke-linecap="round"/><path d="M255.48525,176.90251l1.74865,3.36778l5.38104,3.06986l5.83255,0.88081l-5.01652,4.92584l-13.16025,-4.40588z" fill="#65f76c" stroke-width="0" stroke-linecap="round"/><g fill="#00ff54"><g><path d="M212.39999,157.86691l58.30317,-0.89007l0.11184,7.32605l-58.30317,0.89007z" stroke-width="2" stroke-linecap="butt"/><g stroke-width="2" stroke-linecap="butt"><path d="M250.71147,157.4347l9.61544,-0.14679l0.10951,7.17343l-9.61544,0.14679z"/><path d="M255.67239,162.3968c-0.84293,0.01287 -1.53669,-0.66003 -1.54956,-1.50296c-0.01287,-0.84293 0.66003,-1.5367 1.50296,-1.54956c0.84293,-0.01287 1.5367,0.66003 1.54956,1.50296c0.01287,0.84293 -0.66003,1.53669 -1.50296,1.54956z"/></g><g stroke-width="2" stroke-linecap="butt"><path d="M216.52089,157.80399l9.61544,-0.14679l0.10951,7.17343l-9.61544,0.14679z"/><path d="M221.48182,162.76609c-0.84293,0.01287 -1.53669,-0.66003 -1.54956,-1.50296c-0.01287,-0.84293 0.66003,-1.5367 1.50296,-1.54956c0.84293,-0.01287 1.5367,0.66003 1.54956,1.50296c0.01287,0.84293 -0.66003,1.53669 -1.50296,1.54956z"/></g><path d="M231.05765,160.02466l16.02341,-0.39728" stroke-width="0.5" stroke-linecap="round"/><path d="M230.87939,158.3481l0.05825,3.81566" stroke-width="0.5" stroke-linecap="round"/><path d="M247.12766,162.6799l-16.02341,0.39728" stroke-width="0.5" stroke-linecap="round"/><path d="M230.92599,161.40062l0.05825,3.81566" stroke-width="0.5" stroke-linecap="round"/></g><path d="M270.73811,159.26623l-2.59697,-0.11302" stroke-width="1.5" stroke-linecap="round"/><path d="M270.15323,160.95443l-2.28939,0.03495" stroke-width="1.5" stroke-linecap="round"/><path d="M270.48878,162.93392l-2.74727,0.04194" stroke-width="1.5" stroke-linecap="round"/></g><g fill="#00ff54"><g><path d="M212.72502,189.15759l58.30317,-0.89007l0.11184,7.32605l-58.30317,0.89007z" stroke-width="2" stroke-linecap="butt"/><g stroke-width="2" stroke-linecap="butt"><path d="M251.0365,188.72537l9.61544,-0.14679l0.10951,7.17343l-9.61544,0.14679z"/><path d="M255.99742,193.68748c-0.84293,0.01287 -1.53669,-0.66003 -1.54956,-1.50296c-0.01287,-0.84293 0.66003,-1.5367 1.50296,-1.54956c0.84293,-0.01287 1.5367,0.66003 1.54956,1.50296c0.01287,0.84293 -0.66003,1.53669 -1.50296,1.54956z"/></g><g stroke-width="2" stroke-linecap="butt"><path d="M216.84592,189.09468l9.61544,-0.14679l0.10951,7.17343l-9.61544,0.14679z"/><path d="M221.80685,194.05678c-0.84293,0.01287 -1.53669,-0.66003 -1.54956,-1.50296c-0.01287,-0.84293 0.66003,-1.53669 1.50296,-1.54956c0.84293,-0.01287 1.53669,0.66003 1.54956,1.50296c0.01287,0.84293 -0.66003,1.53669 -1.50296,1.54956z"/></g><path d="M247.40609,190.91806l-16.02341,0.39728" stroke-width="0.5" stroke-linecap="round"/><path d="M231.20442,189.63878l0.05825,3.81566" stroke-width="0.5" stroke-linecap="round"/><path d="M247.45269,193.97058l-16.02341,0.39728" stroke-width="0.5" stroke-linecap="round"/><path d="M231.25102,192.6913l0.05825,3.81565" stroke-width="0.5" stroke-linecap="round"/></g><path d="M271.06314,190.55691l-2.59697,-0.11302" stroke-width="1.5" stroke-linecap="round"/><path d="M270.47826,192.24511l-2.28939,0.03495" stroke-width="1.5" stroke-linecap="round"/><path d="M270.8138,194.2246l-2.74727,0.04194" stroke-width="1.5" stroke-linecap="round"/></g><path d="M263.40738,179.0715c0,0 -4.01237,5.89859 -7.62133,8.08338c-6.07675,3.67876 -11.60861,4.15079 -17.91064,0.8729c-1.57152,-0.8174 -2.92756,-3.17866 -2.92756,-3.17866l-0.38796,-15.4129c0,0 0.54115,-2.14029 2.76947,-3.61439c2.53003,-1.67369 6.94056,-2.69598 9.89042,-2.49315c2.78709,0.19164 5.41973,0.8219 8.19033,2.75438c2.20473,1.53778 7.75843,7.34361 7.75843,7.34361z" fill="#adffbe" stroke-width="0.5" stroke-linecap="round"/><path d="M261.97043,180.94492l-5.21981,0.07969l-1.30443,-1.44564l-0.09926,-6.50187l1.08493,-0.93253l5.3044,-0.53896z" fill="#0eff00" stroke-width="0.5" stroke-linecap="round"/><path d="M266.50447,177.9446l-3.18977,1.05626l-6.7766,0.10345l0.28662,-5.2254l6.13557,-0.09367l3.58962,1.13596z" fill="#005921" stroke-width="0.5" stroke-linecap="round"/><path d="M266.64568,175.19453l34.79875,-0.53125l0.03914,2.56412l-34.79875,0.53125z" fill="#4fff54" stroke-width="0.5" stroke-linecap="butt"/><path d="M237.79027,169.04006c0,0 2.37725,-2.35337 3.81387,-2.38982c0.68822,-0.01746 1.58536,-0.33579 2.59534,0.13254c1.29782,0.60181 2.65539,2.0273 2.65539,2.0273l0.40264,14.37458c0,0 -0.53703,1.85586 -1.88552,2.65712c-1.17035,0.69541 -3.11391,0.35031 -3.83901,0.36138c-1.45386,0.0222 -3.34146,-2.88009 -3.34146,-2.88009z" fill="#79ff70" stroke-width="0.5" stroke-linecap="butt"/><path d="M242.54661,168.60106c1.669,-0.02548 3.04265,1.30686 3.06813,2.97586c0.02548,1.669 -1.30686,3.04265 -2.97586,3.06813c-1.669,0.02548 -3.04265,-1.30686 -3.06813,-2.97586c-0.02548,-1.669 1.30686,-3.04265 2.97586,-3.06813z" fill="#0cff00" stroke-width="0.5" stroke-linecap="butt"/><path d="M242.61441,179.04209c1.669,-0.02548 3.04265,1.30686 3.06813,2.97586c0.02548,1.669 -1.30686,3.04265 -2.97586,3.06813c-1.669,0.02548 -3.04265,-1.30686 -3.06813,-2.97586c-0.02548,-1.669 1.30686,-3.04265 2.97586,-3.06813z" fill="#0cff00" stroke-width="0.5" stroke-linecap="butt"/><path d="M246.79194,176.68839l-8.33339,0.12722" fill="none" stroke-width="0.5" stroke-linecap="round"/><path d="M228.43853,168.46103l5.64717,-0.08621l0.2796,18.31513l-5.64717,0.08621z" fill-opacity="0.64706" fill="#00d61c" stroke-width="2" stroke-linecap="butt"/><path d="M228.94301,171.50657l4.88403,-0.07456l0.03495,2.28939l-4.88403,0.07456z" fill="none" stroke-width="2" stroke-linecap="butt"/><path d="M228.61562,180.06062l4.88403,-0.07456l0.03495,2.28939l-4.88403,0.07456z" fill="none" stroke-width="2" stroke-linecap="butt"/><path d="M216.59435,166.61573l7.5092,-0.11464l0.32015,20.97083l-7.5092,0.11464z" fill-opacity="0.73333" fill="#00b50a" stroke-width="1.5" stroke-linecap="butt"/><path d="M223.96514,169.43431l-6.95835,0.19782" fill="none" stroke-width="1.5" stroke-linecap="round"/><path d="M223.46601,172.73943l-6.50187,0.09926" fill="none" stroke-width="1.5" stroke-linecap="round"/><path d="M223.51355,175.853l-6.7766,0.10345" fill="none" stroke-width="1.5" stroke-linecap="round"/><path d="M223.73864,178.59747l-6.22575,0.18664" fill="none" stroke-width="1.5" stroke-linecap="round"/><path d="M217.55204,181.34823l6.68502,-0.10206" fill="none" stroke-width="1.5" stroke-linecap="round"/><path d="M223.91969,184.45692l-6.13557,0.09367" fill="none" stroke-width="1.5" stroke-linecap="round"/></g></g></g></svg>