<svg version="1.1" xmlns="http://www.w3.org/2000/svg" xmlns:xlink="http://www.w3.org/1999/xlink" width="99.25134" height="45.03742" viewBox="0,0,99.25134,45.03742"><g transform="translate(-202.87525,-155.79396)"><g data-paper-data="{&quot;isPaintingLayer&quot;:true}" fill-rule="nonzero" stroke="#000000" stroke-linejoin="miter" stroke-miterlimit="10" stroke-dasharray="" stroke-dashoffset="0" style="mix-blend-mode: normal"><g><path d="M203.63679,165.62162l62.78048,-0.97401l0.41743,26.90592l-62.78048,0.97401z" fill="#918984" stroke-width="1.5" stroke-linecap="butt"/><path d="M259.84501,178.26115l-11.88291,-3.88573l7.80315,-9.2303l10.75939,6.42273z" fill="#c2c2c2" stroke-width="0" stroke-linecap="round"/><path d="M232.25177,168.99856l17.79231,15.83817l-19.82148,-8.14261z" fill="#009c0d" stroke-width="0" stroke-linecap="round"/><path d="M227.04914,186.30195l13.31981,-8.79078l-5.58997,13.54292z" fill="#00ff83" stroke-width="0" stroke-linecap="round"/><path d="M253.57312,177.47245l10.56263,0.7341l-3.92502,7.46921z" fill="#ffffff" stroke-width="0" stroke-linecap="round"/><path d="M216.62305,172.26501l7.81199,16.86698l-15.17017,-4.48358l-1.40635,-14.6069z" fill="#ffaf00" stroke-width="0" stroke-linecap="round"/><path d="M212.44708,165.98331l22.61861,1.64259l-15.49355,7.88217z" fill="#e8c000" stroke-width="0" stroke-linecap="round"/><path d="M226.29429,191.18573l-12.10962,0.18788l-8.04792,-6.0218l17.89612,-0.09686z" fill="#ffde00" stroke-width="0" stroke-linecap="round"/><path d="M251.81762,178.49643l1.90378,3.66432l5.85644,3.33915l6.34717,0.95692l-5.45761,5.36162l-14.32207,-4.79089z" fill="#7a7a7a" stroke-width="0" stroke-linecap="round"/><g><g><path d="M204.92742,157.79368l63.44483,-0.98432l0.12368,7.97213l-63.44483,0.98432z" fill="#b1b1b1" stroke-width="2" stroke-linecap="butt"/><g stroke-width="2" stroke-linecap="butt"><path d="M246.61756,157.31299l10.46342,-0.16234l0.12111,7.80604l-10.46342,0.16234z" fill="#b1b1b1"/><path d="M252.01734,162.71138c-0.91727,0.01423 -1.67239,-0.71783 -1.68662,-1.63509c-0.01423,-0.91727 0.71782,-1.6724 1.63509,-1.68663c0.91727,-0.01423 1.6724,0.71783 1.68663,1.6351c0.01423,0.91727 -0.71783,1.6724 -1.6351,1.68663z" fill="#926548"/></g><g stroke-width="2" stroke-linecap="butt"><path d="M209.41173,157.7241l10.46342,-0.16234l0.12111,7.80604l-10.46342,0.16234z" fill="#b1b1b1"/><path d="M214.81152,163.12248c-0.91727,0.01423 -1.67239,-0.71783 -1.68662,-1.63509c-0.01423,-0.91727 0.71782,-1.6724 1.63509,-1.68663c0.91727,-0.01423 1.6724,0.71783 1.68663,1.63509c0.01423,0.91727 -0.71783,1.6724 -1.6351,1.68663z" fill="#926548"/></g><path d="M225.23113,160.13669l17.43644,-0.43665" fill="#926548" stroke-width="0.5" stroke-linecap="round"/><path d="M225.0367,158.31232l0.06442,4.15215" fill="#b1b1b1" stroke-width="0.5" stroke-linecap="round"/><path d="M242.71911,163.02176l-17.43644,0.43665" fill="#926548" stroke-width="0.5" stroke-linecap="round"/><path d="M225.08823,161.63404l0.06442,4.15215" fill="#926548" stroke-width="0.5" stroke-linecap="round"/></g><path d="M268.41089,159.30064l-2.82603,-0.12228" fill="#926548" stroke-width="1.5" stroke-linecap="round"/><path d="M267.7749,161.13789l-2.49129,0.03865" fill="#926548" stroke-width="1.5" stroke-linecap="round"/><path d="M265.15102,163.33824l2.98954,-0.04638" fill="#926548" stroke-width="1.5" stroke-linecap="round"/></g><g><g><path d="M205.28956,191.84387l63.44483,-0.98432l0.12368,7.97213l-63.44483,0.98432z" fill="#b1b1b1" stroke-width="2" stroke-linecap="butt"/><g fill="#b1b1b1" stroke-width="2" stroke-linecap="butt"><path d="M246.97971,191.36319l10.46342,-0.16234l0.12111,7.80604l-10.46342,0.16234z"/><path d="M252.37949,196.76157c-0.91727,0.01423 -1.67239,-0.71783 -1.68662,-1.63509c-0.01423,-0.91727 0.71782,-1.6724 1.63509,-1.68663c0.91727,-0.01423 1.6724,0.71783 1.68663,1.63509c0.01423,0.91727 -0.71783,1.6724 -1.6351,1.68663z"/></g><g stroke-width="2" stroke-linecap="butt"><path d="M209.77389,191.7743l10.46341,-0.16234l0.12111,7.80604l-10.46341,0.16234z" fill="#b1b1b1"/><path d="M215.17367,197.17268c-0.91727,0.01423 -1.6724,-0.71782 -1.68663,-1.63509c-0.01423,-0.91727 0.71783,-1.67239 1.63509,-1.68662c0.91727,-0.01423 1.67239,0.71782 1.68662,1.63509c0.01423,0.91727 -0.71782,1.67239 -1.63509,1.68662z" fill="#926548"/></g><path d="M243.02972,193.75024l-17.43645,0.43664" fill="#926548" stroke-width="0.5" stroke-linecap="round"/><path d="M225.39885,192.36251l0.06442,4.15215" fill="#926548" stroke-width="0.5" stroke-linecap="round"/><path d="M243.08126,197.07195l-17.43645,0.43665" fill="#b1b1b1" stroke-width="0.5" stroke-linecap="round"/><path d="M225.45038,195.68423l0.06442,4.15215" fill="#b1b1b1" stroke-width="0.5" stroke-linecap="round"/></g><path d="M268.77304,193.35084l-2.82604,-0.12228" fill="#926548" stroke-width="1.5" stroke-linecap="round"/><path d="M265.64576,195.22674l2.49129,-0.03865" fill="#926548" stroke-width="1.5" stroke-linecap="round"/><path d="M268.50271,197.34205l-2.98954,0.04638" fill="#b1b1b1" stroke-width="1.5" stroke-linecap="round"/></g><path d="M260.439,180.85457c0,0 -7.28848,10.70145 -11.21513,13.07991c-3.47971,2.10774 -6.89114,1.69617 -9.83514,2.43594c-2.66594,0.66989 -5.38181,0.70076 -8.6506,-0.99841c-1.71034,-0.88906 -1.26701,-8.22257 -1.26701,-8.22257l-0.42634,-16.7721c0,0 -0.50485,-8.54195 1.91959,-10.14666c3.25368,-2.15357 5.16175,-1.00512 7.52463,-0.51445c2.38069,0.49437 5.69874,-0.65674 8.9237,1.59146c2.39958,1.6728 12.76487,13.40429 12.76487,13.40429z" fill="#949494" stroke-width="0.5" stroke-linecap="round"/><path d="M258.87583,182.8936l-5.68014,0.08813l-1.41986,-1.57278l-0.10977,-7.07526l1.18036,-1.01507l5.77206,-0.58793z" fill="#000000" stroke-width="0.5" stroke-linecap="round"/><path d="M263.80893,179.62745l-3.4708,1.15028l-7.37422,0.11441l0.31048,-5.68633l6.67665,-0.10359l3.90651,1.23518z" fill="#595959" stroke-width="0.5" stroke-linecap="round"/><path d="M263.96185,176.63481l37.8676,-0.5875l0.04329,2.79024l-37.8676,0.5875z" fill="#ffffff" stroke-width="0.5" stroke-linecap="butt"/><path d="M232.55995,169.94536c0,0 2.58627,-2.56156 4.14958,-2.60161c0.74891,-0.01919 1.72509,-0.36583 2.82426,0.14353c1.41244,0.65453 2.89012,2.20537 2.89012,2.20537l0.44203,15.6422c0,0 -0.58389,2.01967 -2.05109,2.89196c-1.27338,0.75706 -3.38844,0.38205 -4.17748,0.39429c-1.58208,0.02455 -3.63693,-3.13319 -3.63693,-3.13319z" fill="#b5b5b5" stroke-width="0.5" stroke-linecap="butt"/><path d="M237.73564,169.46636c1.81619,-0.02818 3.31134,1.4213 3.33952,3.23748c0.02818,1.81619 -1.42129,3.31134 -3.23748,3.33952c-1.81619,0.02818 -3.31135,-1.42129 -3.33952,-3.23748c-0.02818,-1.81619 1.4213,-3.31135 3.23748,-3.33952z" fill="#737373" stroke-width="0.5" stroke-linecap="butt"/><path d="M237.81224,180.82818c1.81619,-0.02818 3.31134,1.4213 3.33952,3.23748c0.02818,1.81619 -1.42129,3.31134 -3.23748,3.33952c-1.81619,0.02818 -3.31134,-1.42129 -3.33952,-3.23748c-0.02818,-1.81619 1.42129,-3.31135 3.23748,-3.33952z" fill="#737373" stroke-width="0.5" stroke-linecap="butt"/><path d="M242.35756,178.26578c0,0 -5.78136,0.0897 -7.37421,0.11441c-0.76345,0.01184 -1.69408,0.02628 -1.69408,0.02628" fill="none" stroke-width="0.5" stroke-linecap="round"/><path d="M222.3833,169.31779l6.14518,-0.09534l0.30921,19.93031l-6.14518,0.09534z" fill-opacity="0.64706" fill="#d6d6d6" stroke-width="2" stroke-linecap="butt"/><path d="M222.9331,172.63178l5.31475,-0.08246l0.03865,2.49129l-5.31475,0.08246z" fill="none" stroke-width="2" stroke-linecap="butt"/><path d="M222.57914,181.94032l5.31475,-0.08246l0.03865,2.49129l-5.31475,0.08246z" fill="none" stroke-width="2" stroke-linecap="butt"/><path d="M209.49405,167.31295l8.17143,-0.12678l0.35405,22.82021l-8.17143,0.12678z" fill-opacity="0.73333" fill="#b5b5b5" stroke-width="1.5" stroke-linecap="butt"/><path d="M217.51565,170.37812l-7.57197,0.21715" fill="none" stroke-width="1.5" stroke-linecap="round"/><path d="M216.9734,173.97485l-7.07526,0.10977" fill="#bdff00" stroke-width="1.5" stroke-linecap="round"/><path d="M217.02597,177.363l-7.37422,0.11441" fill="none" stroke-width="1.5" stroke-linecap="round"/><path d="M217.27165,180.34946l-6.77476,0.20478" fill="none" stroke-width="1.5" stroke-linecap="round"/><path d="M217.81475,183.23162l-7.27456,0.11286" fill="none" stroke-width="1.5" stroke-linecap="round"/><path d="M217.47025,186.72561l-6.67666,0.10359" fill="none" stroke-width="1.5" stroke-linecap="round"/></g></g></g></svg>